<svg xmlns="http://www.w3.org/2000/svg" viewBox="0 0 453.3 513.61"><defs><style>.a{fill:#68C9B2;}.b{fill:#fff;}.c{fill:#fcd2aa;}.d{fill:#b89448;}.e{fill:#798784;}.f{fill:#fbe7cf;}.g{opacity:0.15;}.h{fill:#1e380d;}</style></defs><title>Autoorganización</title><path class="a" d="M428.52,115.45c-11.39-22-27.48-42-44.36-60.1a140,140,0,0,0-63.51-38.74C266.8.9,212.34-7,157.22,8S52.81,60.16,26.16,111.11C12.62,137,5.3,165.68,2.28,194.62c-3.66,35-4.7,71.64,10.89,104.19,10.17,21.25,26.62,38.93,44.64,54.1,31.61,26.61,67.55,54.66,107.92,65.91,24.67,6.87,50.9,7.77,76.32,6.25s52.08-3.05,76.57-10.2c59.57-17.39,105.72-73.48,124.34-131C460.88,228.58,455.16,167,428.52,115.45ZM121.26,282.07a19.44,19.44,0,0,0-1.78-1.42c-1.3-1.33-1.08-2.08,2,1.57Z"/><path class="b" d="M195.81,395.18a2.77,2.77,0,0,0-.94-.86c0-.07-.05-.14-.07-.21-.39-1.07-.77-2.14-1.15-3.21a4,4,0,0,0-.27-.55c-1.08-3.83-2.27-7.63-3.6-11.39a2.43,2.43,0,0,0-1.68-1.6Q185.73,370,184,362.57a171.21,171.21,0,0,1-3.68-29.64,2.36,2.36,0,0,0-1-1.92.31.31,0,0,1,0-.1,2.58,2.58,0,0,0-3.19-2.32q-.47-3.87-.84-7.76c.41-5.36.54-9.65-.81-14.42a110.24,110.24,0,0,1,.46-11.79c.2-2-1.75-2.75-3.27-2.18A85.29,85.29,0,0,0,181,278.6a2.46,2.46,0,0,0,.3-1.5,32.13,32.13,0,0,0,2.55-19.28,2.41,2.41,0,0,0,.51-1.49,30,30,0,0,0-2.77-12.89,2,2,0,0,0-2.39-1.21c-4.58-10.33-14.17-14.9-24.56-17.11a24.82,24.82,0,0,0-3.37-2.64,2.44,2.44,0,0,0,.09-1.53,61.82,61.82,0,0,1-1.8-12.69,2.45,2.45,0,0,0-2.46-2.39,47,47,0,0,1,1.45-13.3,2.31,2.31,0,0,0-1.07-2.66c6.35-3.43,10.32-9.21,13.13-15.82,3.24-7.63,3.63-13.59,2.37-21.73-2.33-15.05-13.28-29.11-29.08-31.22-8-1.07-15.2-.83-22,4-6,4.32-10.72,10.74-14.16,17.22-8.39,15.78-3.81,29.53,7.22,42.49a2.17,2.17,0,0,0,1.26.78L106,186.8a2.21,2.21,0,0,0-2.18,1.76,363.78,363.78,0,0,0-11.53,80.63l0,.09c-1.94,9-3.65,18.43-4.86,27.53-1.28,9.51-.63,19.09,0,28.62a2.45,2.45,0,0,0,.37,1.15c-.95,1.47-.3,3.95,2,3.92,3.2,0,6.4-.16,9.59-.31l2.37,1a18,18,0,0,0,9.56,0l.47-.15a13.55,13.55,0,0,0,4.46-2l.36-.16,1.87-.19a2.65,2.65,0,0,0,2.34-2.81,13.4,13.4,0,0,0,1.71-2.1,14.35,14.35,0,0,0,1.24-1.58c-.15,1.4-.32,2.81-.56,4.21-1.73,10-2.78,20.11-4.63,30.1a2.58,2.58,0,0,0,0,.92c-.33,1.4-.67,2.79-1,4.19-.79,2.46-1.67,4.9-2.68,7.31a12.94,12.94,0,0,0-.82,7q-3.15,12.53-6.56,25c-1.61.22-3,1.79-1.87,3.42a2.12,2.12,0,0,0-1.14,2.74c2.37,6.89,9.33,9.63,15.87,11.48,9.53,2.7,19,1.9,28.7,1.06,9.28-.8,17.42-2.37,25.64-6.89,1.35-.75,2.8-1.5,4.28-2.28a17,17,0,0,0,7.49-4.24,33.78,33.78,0,0,0,7.58-6.23,2.56,2.56,0,0,0,2.69-2.45l0-.44A2.18,2.18,0,0,0,195.81,395.18ZM169.89,294.62c-.09.95-.17,1.9-.23,2.86a15.64,15.64,0,0,0-1.44-1.26c.58-.62,1.16-1.25,1.73-1.88A2.3,2.3,0,0,0,169.89,294.62Z"/><path class="b" d="M360.49,258c2.54-9.53.63-19.13-3.3-27.88a18.39,18.39,0,0,0-2.58-6.84,13.92,13.92,0,0,0-2-3.62,3.93,3.93,0,0,0-.06-.48A277.08,277.08,0,0,1,347,179.27a2.45,2.45,0,0,0-1.59-2.18l.06-.11c.22-.37.43-.75.64-1.13,0-.09.09-.17.13-.25.14-.26.27-.53.4-.8,3.29-6.73,3.94-14.17,3.54-22.81a2.74,2.74,0,0,0-.26-1c-.92-10.3-5-20.14-14.53-24.68a21,21,0,0,0-12.53-1.87c-4.37-1.23-8.21-1.72-13.08-.34-6,1.7-11.05,2.23-15.68,6.82-8,7.91-11.43,19.81-10.9,30.83.61,12.87,6.09,21.31,16.82,27.5a193.24,193.24,0,0,1-4.48,28.19,2.37,2.37,0,0,0,.32,1.9c-.16.75-.3,1.51-.43,2.27-7.23,7.28-12.48,17.94-13.63,27.14a2,2,0,0,0,.52,1.74,39.37,39.37,0,0,0,2.06,13.1c1.29,5.51,4,16,9.32,18.82.59.9,1.2,1.79,1.86,2.64a35.42,35.42,0,0,0-1.67,5.36,2.86,2.86,0,0,0-.05.76,55,55,0,0,0-2.47,9.09c-.92,5.47-.63,11.1-.93,16.62a342.26,342.26,0,0,1-4.54,39.88,2.79,2.79,0,0,0,0,1,2.85,2.85,0,0,0-.22.8q-2.38,21-3.28,42.06a2.66,2.66,0,0,0-1.39,4.26c9.82,11.42,24.68,14.75,39.17,14.85,6.31,0,13.86.34,19.83-2.1,4.35-1.77,8.33-5.33,11.41-9.23,1.48.35,3.31-.57,3.13-2.34-.06-.63-.14-1.26-.21-1.89a2.22,2.22,0,0,0-.33-2.72c-.48-3.48-1.09-6.94-1.88-10.38q-1.11-10.39-2.55-20.75a3,3,0,0,0-.14-.57c-.39-9.87-.58-19.75-.51-29.63a2.35,2.35,0,0,0-2.75-2.37c0-9.95-.61-20.34.77-30.15a2.79,2.79,0,0,0-3.05-3.09,70.26,70.26,0,0,1,2.34-16.18,2.29,2.29,0,0,0-1.73-2.94q.38-.63.69-1.26C352.44,277.27,358.09,267,360.49,258Zm-18.32-76.46c0,.53.09,1.06.13,1.59-.29-.25-.58-.51-.88-.75C341.67,182.11,341.93,181.83,342.17,181.55Z"/><path class="b" d="M259.29,288.46l.57-.86a39.09,39.09,0,0,1,2.13-5.38c.16-.78.32-1.56.47-2.34.43-2.31.81-4.63,1.21-6.94a27.61,27.61,0,0,1,1.2-4.55c0-.72,0-1.45,0-2.18a3.46,3.46,0,0,0-.45-.29c0-2.63-.06-5.27-.08-7.9a129.55,129.55,0,0,0,1.75-19.22,4.1,4.1,0,0,0-2.81-3.88,321.18,321.18,0,0,0-1.24-51.8c-.81-7.56-2.55-14.48-4.37-21.83-1.29-5.24-.72-10.54-2.58-15.44a2.61,2.61,0,0,0-.81-3.43c0-.16,0-.32,0-.49a46.55,46.55,0,0,0,4.48-13.58v0a1.94,1.94,0,0,0,1-1.57,67.35,67.35,0,0,0,.75-9.83,3.1,3.1,0,0,0,0-.54c.59-6.26-1.51-12.21-4.82-17.48a19.28,19.28,0,0,0-6.92-8.52,2.19,2.19,0,0,0-1.32-.41,23.11,23.11,0,0,0-8.24-6.24c-11.28-4.72-23.89-2.37-33.75,4.15-19.2,12.67-20.38,41.46-2.42,55.23a2.37,2.37,0,0,0-.86,1.25c-3.89,12.28-6.18,25-8.39,37.65a22.18,22.18,0,0,1,.51,8.2c-.31,2.17-.85,4.3-1.13,6.47A17.67,17.67,0,0,1,194.27,208a98.07,98.07,0,0,0-2.37,11.89c-.24,1.85-.39,3.7-.51,5.57,0,.58-.07,1-.1,1.38s.09,1,.15,1.78c.5,7.51,1.39,15,2.07,22.44.71,7.84.67,15.69,1.46,23.53a130.74,130.74,0,0,1,.53,14l0,.1c.11.27.18.55.28.83,5.89,7.09,19.08,7.59,27.6,7.54a4.57,4.57,0,0,0,1.52-.28,7.55,7.55,0,0,0,2.08,1.35,35.25,35.25,0,0,1,7.32-1.27l.79,0a10,10,0,0,0,2.53-2.92,19.08,19.08,0,0,0,4.81,1.35,22.43,22.43,0,0,1,3.66-.33,89.46,89.46,0,0,1,8.69-4.38Z"/><path class="c" d="M307.74,241.53c-9.65,0-9.67,15,0,15S317.41,241.53,307.74,241.53Z"/><path class="d" d="M166.41,255.93c-9.65,0-9.67,15,0,15S176.08,255.93,166.41,255.93Z"/><path class="d" d="M328.54,158.86c-9.65,0-9.67,15,0,15S338.21,158.86,328.54,158.86Z"/><path class="d" d="M283.74,157.79a8.2,8.2,0,0,0-1.69.17,5.28,5.28,0,0,1,.28,1.65c.07,4.42,1,8.76,1.06,13.17h.35C293.39,172.79,293.41,157.79,283.74,157.79Z"/><path class="e" d="M121.08,157.26c-9.66,0-9.67,15,0,15S130.74,157.26,121.08,157.26Z"/><path class="e" d="M164.64,164.8a5.55,5.55,0,0,1,.42-1.74c.14-.63.27-1.26.39-1.9a8.4,8.4,0,0,0-1.71-.17c-8.64,0-9.55,12-2.7,14.54C162.34,172,163.68,168.44,164.64,164.8Z"/><path class="f" d="M248.54,122.06c-9.65,0-9.67,15,0,15S258.21,122.06,248.54,122.06Z"/><path class="f" d="M203.74,127.39c-9.65,0-9.67,15,0,15S213.41,127.39,203.74,127.39Z"/><path class="b" d="M377,186c-.11-.23-.22-.45-.35-.67a2.38,2.38,0,0,0-1.13-1,1.73,1.73,0,0,0-.14-.31,2.55,2.55,0,0,0-3.39-.89c-2.21.94-3.26,3.35-3.62,5.75a11.72,11.72,0,0,0-.87,2.11c-.77,2.62.39,5.83,3.4,6.18s4.86-2.21,6-4.55l.27-.59c0-.07.08-.12.11-.19s.05-.18.08-.27C378.09,189.58,378.26,187.54,377,186Z"/><path class="b" d="M268.83,69.85a3.16,3.16,0,0,0-2.17-.43,2.46,2.46,0,0,0-3.28-.74c-2.45,1.89-3.56,5-2,7.87S266.63,80.48,269,78C270.92,75.94,271.68,71.45,268.83,69.85Z"/><path class="b" d="M153.92,79.38a4.51,4.51,0,0,0-6.46-2.72,2.4,2.4,0,0,0-.77.66A5.7,5.7,0,0,0,145,82.66c.5,2.81,3.58,4.84,6.26,3.35A6.11,6.11,0,0,0,153.92,79.38Z"/><path class="g" d="M261.68,235.82a102.92,102.92,0,0,1-13.08,18.06l-.95,1.05q-2.49,2.69-5.18,5.21a2.26,2.26,0,0,0-.74,1.31c-.42.46-.83.92-1.25,1.37a2.45,2.45,0,0,0,0,3.32,3.3,3.3,0,0,0-.47.79c-1.23,3-2.62,5.95-4.13,8.83a2.92,2.92,0,0,0-.13.34,4.57,4.57,0,0,1-3.34.6,2.46,2.46,0,0,0-3.25-.69,13.63,13.63,0,0,1-1.24.79,2.49,2.49,0,0,0-1.7-.09,2,2,0,0,0-2.66-.09c-2.19,1.62-2.83-1.43-4-2.8a7.9,7.9,0,0,0-1.28-1.18,2.25,2.25,0,0,0-2.11-1.26h-.91a10.56,10.56,0,0,0-1.26-.14,2.07,2.07,0,0,1-1.14-.62c-.08-1.89-.06-3.88-.16-5.86.07-.28.14-.57.22-.82a2,2,0,0,0-.5-2.31c-.06-.4-.13-.79-.21-1.18a2.33,2.33,0,0,0,1.41-.68,2.55,2.55,0,0,0,0-3.51,19.54,19.54,0,0,0-4.3-3.71,2.49,2.49,0,0,0-3.39.89,2,2,0,0,0-.14.34c-1.62-1.77-3-3.74-4.48-5.63l-7.46-9.69c-1.91-2.5-6.23,0-4.28,2.5q4.6,6,9.2,12c2.49,3.24,4.92,6.29,8.41,8.5l.27.13a25.07,25.07,0,0,1,.15,3.12c-.54,2.76-.51,6.09.77,8.3a6.55,6.55,0,0,0,4.48,3,2.85,2.85,0,0,0,.85.16h.15l.37,0c2.38.48,3,3.92,5.12,5.12a5.9,5.9,0,0,0,2,.67,2.18,2.18,0,0,0,.61.25,9.48,9.48,0,0,0,1.75.2,2.71,2.71,0,0,0,2.11.4,15.81,15.81,0,0,0,4.35-1.65h0c4.7,1.91,9.92-.94,11.64-5.48a2.34,2.34,0,0,0,.13-1.2c.32-.68.64-1.37.95-2.06l.06,0a10,10,0,0,0,4.12-9.14c0-.1-.05-.21-.07-.32l4.06-4.47q.88-.94,1.74-1.92l5.49-6a2.42,2.42,0,0,0,.65-1.51,105.08,105.08,0,0,0,7-10.73C267.55,235.54,263.26,233,261.68,235.82Z"/><path class="g" d="M221.5,256.92l-.17-1.1a2.1,2.1,0,0,0-.62-1.28,140.36,140.36,0,0,1-4.14-15.23,2.21,2.21,0,0,0,.66-2.39l-4.14-14.38c-.34-2.31-.65-4.63-.88-7-.3-3.15-5.27-3.19-5,0,.21,2.12.47,4.24.76,6.35a2.51,2.51,0,0,0,.07,1.14c.07.26.15.53.23.8.72,4.73,1.64,9.43,2.83,14.09a2.32,2.32,0,0,0,.21.56l.19,1.84a2.57,2.57,0,0,0,.46,1.24,137.78,137.78,0,0,0,4.72,16.65A2.48,2.48,0,0,0,221.5,256.92Z"/><path class="g" d="M124.87,299.49c0-.24,0-.48,0-.73a2.32,2.32,0,0,0-3.4-2.14,12.77,12.77,0,0,1-2-3.35,17.1,17.1,0,0,1-1.6-6.4c-.26-3.16-5.22-3.19-5,0s2.43,12.59,6.51,14.93A214,214,0,0,1,114,328.18c-.84,3.08,4,4.4,4.79,1.32a222.73,222.73,0,0,0,5.84-28.92A2.29,2.29,0,0,0,124.87,299.49Z"/><path class="g" d="M329.42,208.21a19.11,19.11,0,0,1,9.23,3.11c.3.13.57.3.87.45h0a25.86,25.86,0,0,1,7.83,4.07c.47.29.92.59,1.34.91,1.53,1.21,3.91.88,4.46-1.23l.57-2.16c.75-2.85-2.89-4.25-4.53-2.54-6.81-3.66-16.18-4.79-23.36-4.3a2.64,2.64,0,0,0-2.39,1.83A32.06,32.06,0,0,1,329.42,208.21Z"/><path class="g" d="M249.93,144c-10,16.49-31.25,12.78-43.93,1.89-2.41-2.07-5.94,1.42-3.51,3.51,15.15,13,39.93,16.47,51.72-2.9C255.88,143.77,251.59,141.27,249.93,144Z"/><path class="g" d="M339.67,181.24c-5.56,6.23-12.09,12.33-20.54,14.12a20.09,20.09,0,0,1-13.59-1.63c-1.93-1-3.12-2.68-5.39-2.78a2.49,2.49,0,0,0-2.39,1.83c0,.18-.07.37-.1.56a2.53,2.53,0,0,0,1.73,3l.41.12a2.46,2.46,0,0,0,1.43,0c1.14.75,2.76,2,3.38,2.3a22.16,22.16,0,0,0,5.65,1.68,27.15,27.15,0,0,0,11.06-.53c8.87-2.23,15.92-8.53,21.86-15.19C345.3,182.37,341.8,178.85,339.67,181.24Z"/><path class="g" d="M106.42,135.36a103,103,0,0,0-8.6,43.3c.06,3.19,5,3.2,5,0a97.34,97.34,0,0,1,7.92-40.79C112,135,107.68,132.44,106.42,135.36Z"/><path class="g" d="M146.22,189.35c-11.48,9.43-27.37,8.2-37.58-2.44-2.22-2.3-5.72,1.21-3.51,3.51,12.22,12.74,31.05,13.57,44.6,2.44C152.2,190.83,148.67,187.34,146.22,189.35Z"/><path class="g" d="M351.32,281.59a2.54,2.54,0,0,0-2.48,2.49l-.06.56a2,2,0,0,0-2.16,1.79,59.21,59.21,0,0,0-.73,16.86c.32,3.15,5.29,3.18,5,0a56.85,56.85,0,0,1-.16-9.93,2.54,2.54,0,0,0,2.39-2.47l.72-6.81A2.49,2.49,0,0,0,351.32,281.59Z"/><path class="g" d="M171.44,291.5c-6.34,12.35-21.49,8.79-32.19,5.79-3.08-.86-4.4,3.93-1.32,4.79,12.95,3.62,30.38,6.38,37.79-8.08C177.18,291.16,172.9,288.65,171.44,291.5Z"/><path class="g" d="M321,292a31.23,31.23,0,0,1-24.51-5.3c-2.62-1.84-5.1,2.46-2.5,4.28a36.23,36.23,0,0,0,28.33,5.81C325.46,296.13,324.13,291.35,321,292Z"/><path class="h" d="M129.89,227.18c-.08-.15.63-.7,2.1-1.62a30.41,30.41,0,0,1,7-2.92,38.85,38.85,0,0,1,12-1.2,42.47,42.47,0,0,1,15.58,4,39.61,39.61,0,0,1,8,5.07,38.54,38.54,0,0,1,3.74,3.43c.58.64,1.13,1.32,1.7,2,.28.34.58.67.84,1l.76,1.11c.48.75,1.06,1.46,1.48,2.27l1.33,2.41c.42.83.76,1.7,1.15,2.56a23.44,23.44,0,0,1,1,2.66,41.05,41.05,0,0,1,2.17,11.5,44.77,44.77,0,0,1-5.62,24.29,29.86,29.86,0,0,1-1.75,2.82c-.31.46-.6.94-.94,1.38l-1,1.31a34.5,34.5,0,0,1-4.66,4.94,32.59,32.59,0,0,1-5.67,4.06,34.24,34.24,0,0,1-6.5,2.79,50.63,50.63,0,0,1-13.5,2.1,70.35,70.35,0,0,1-13.08-.7,39.17,39.17,0,0,1-12.34-3.95,26.43,26.43,0,0,1-5.31-3.67c-.83-.68-1.52-1.51-2.27-2.25l-1-1.23-.49-.61-.44-.65-.86-1.29-.75-1.34c-.53-.88-.89-1.83-1.32-2.73a34.77,34.77,0,0,1-1.77-5.59,43.81,43.81,0,0,1-1-11,57.65,57.65,0,0,1,1.15-10.08,74.12,74.12,0,0,1,2.35-9,43.56,43.56,0,0,1,7.47-14.19,35.6,35.6,0,0,1,8.89-8.17,20.09,20.09,0,0,1,7.12-2.79l1.14-.16.83,0c.45,0,.68.05.7.14s-.2.21-.61.37l-.76.26-1,.38a24.47,24.47,0,0,0-6.29,3.43,37.08,37.08,0,0,0-7.77,8.26,42.76,42.76,0,0,0-6.31,13.54,76.35,76.35,0,0,0-1.93,8.61,57.63,57.63,0,0,0-.8,9.42,40.52,40.52,0,0,0,1.19,9.89,30.72,30.72,0,0,0,1.63,4.85,24.66,24.66,0,0,0,1.17,2.29l.65,1.12.74,1.07.37.53.42.5.83,1c.64.59,1.2,1.28,1.9,1.82a22.64,22.64,0,0,0,4.45,3,34.76,34.76,0,0,0,10.86,3.33,67.71,67.71,0,0,0,12.16.57,46.14,46.14,0,0,0,12.17-1.9,28.07,28.07,0,0,0,10.39-5.81,31,31,0,0,0,4.1-4.32l.93-1.14c.31-.38.55-.81.83-1.21a24.65,24.65,0,0,0,1.57-2.48,40.69,40.69,0,0,0,5.27-21.66,37.77,37.77,0,0,0-1.75-10.35,19.31,19.31,0,0,0-.84-2.39c-.32-.77-.61-1.56-1-2.31s-.76-1.45-1.13-2.18-.86-1.36-1.27-2.05l-.65-1c-.22-.33-.48-.62-.72-.93-.5-.61-1-1.24-1.46-1.82a37.49,37.49,0,0,0-3.26-3.18,36.9,36.9,0,0,0-7.09-4.85,40.55,40.55,0,0,0-25.57-4C133.25,225.75,130.1,227.59,129.89,227.18Z"/><path class="h" d="M335.23,209c0-.08.27-.11.74-.09a11.31,11.31,0,0,1,2.1.29,25.19,25.19,0,0,1,7.58,3,34.24,34.24,0,0,1,9.59,8.74,47.16,47.16,0,0,1,7.58,15.42,49.32,49.32,0,0,1,1.48,20.86,46.87,46.87,0,0,1-9.7,22.05,45.85,45.85,0,0,1-9.62,9,41,41,0,0,1-12.52,5.9,45.36,45.36,0,0,1-7,1.37,46,46,0,0,1-7.24.18,46.47,46.47,0,0,1-7.28-1,43.33,43.33,0,0,1-7.11-2.3,39.19,39.19,0,0,1-12.36-8.18,43.85,43.85,0,0,1-12.66-24.72,47,47,0,0,1-.1-13.18,49.07,49.07,0,0,1,3.23-12.08,43.94,43.94,0,0,1,5.85-10.23,43.33,43.33,0,0,1,7.74-7.85,46.91,46.91,0,0,1,8.67-5.21A47.44,47.44,0,0,1,320.91,207a42.38,42.38,0,0,1,12.85,1.21,23.65,23.65,0,0,1,2.4.68c.74.26,1.45.43,2.08.71,1.25.54,2.32.94,3.13,1.4,1.62.9,2.42,1.44,2.34,1.6s-1-.09-2.73-.67c-.85-.3-1.94-.54-3.2-.91-.62-.2-1.33-.29-2.06-.47s-1.51-.35-2.35-.44a44.67,44.67,0,0,0-12.24-.32,46.37,46.37,0,0,0-15.41,4.47,43.4,43.4,0,0,0-7.78,5A40.78,40.78,0,0,0,286,236a45.54,45.54,0,0,0-2.74,11,40.78,40.78,0,0,0,4.1,23.54,36.76,36.76,0,0,0,18.39,17.36,38.89,38.89,0,0,0,6.27,2,41.71,41.71,0,0,0,12.9.77,41.27,41.27,0,0,0,6.21-1.18A39,39,0,0,0,351,276.44a43.3,43.3,0,0,0,9.19-19.84,46.82,46.82,0,0,0-.8-19.26,46.07,46.07,0,0,0-6.44-14.7,34.65,34.65,0,0,0-8.38-8.75,32,32,0,0,0-6.81-3.7c-.83-.35-1.48-.57-1.91-.75S335.22,209.12,335.23,209Z"/><path class="h" d="M296.44,244.32c-.68,0-1.28-1-1.5-2.58a13.37,13.37,0,0,1,4.34-11.11c1.24-1,2.33-1.32,2.85-.88s.45,1.5.08,2.86-1,3-1.75,4.89a50.64,50.64,0,0,1-2,4.77C297.79,243.52,297.14,244.36,296.44,244.32Z"/><path class="h" d="M175,254.46c-.68.16-1.42-.34-2.16-1.13a20.09,20.09,0,0,1-2.27-3.11,20.78,20.78,0,0,1-1.76-3.43c-.37-1-.48-1.91,0-2.45s1.39-.57,2.56,0a9.2,9.2,0,0,1,4.85,7.88C176.13,253.48,175.66,254.31,175,254.46Z"/><path class="h" d="M144.53,292.57c-.63-.41.92-3.7,2.85-9.09.24-.67.49-1.38.76-2.12l.73-2.32c.54-1.59,1-3.35,1.51-5.16,1-3.67,1.9-7.74,2.79-12.07,1.72-8.67,3.17-16.67,4.7-22.39s3-9.15,3.63-9,.45,3.81-.15,9.62-1.52,13.86-3.28,22.76a109.28,109.28,0,0,1-3.28,12.41c-.68,1.87-1.29,3.65-2,5.27-.35.81-.68,1.6-1,2.34l-1.1,2.1C147.71,290.24,145,292.92,144.53,292.57Z"/><path class="h" d="M280.09,406.89c-.68-.05-.83-6.95-.46-18.07s1.27-26.48,3-43.39c.88-8.46,1.91-16.5,3-23.79s2.27-13.83,3.42-19.29c2.27-10.92,4.31-17.54,5-17.41s-.11,7-1.47,18c-.67,5.5-1.46,12.05-2.34,19.32s-1.71,15.28-2.59,23.69c-1.72,16.83-3.17,32.09-4.45,43.14S280.79,406.94,280.09,406.89Z"/><path class="h" d="M355.08,406.26c-.69.07-2-6.64-3.51-17.53s-3.26-26-4.66-42.74-2.14-31.94-2.26-43,.29-17.85,1-17.87,1.53,6.74,2.56,17.68,2.31,26,3.71,42.73,2.58,31.83,3.2,42.81S355.77,406.19,355.08,406.26Z"/><path class="h" d="M355.08,405c.15.07.16.42,0,1a10.12,10.12,0,0,1-.32,1.11c-.16.42-.36.9-.61,1.43a23,23,0,0,1-2.23,3.68,28.23,28.23,0,0,1-3.93,4.2A31,31,0,0,1,334.53,423a56.86,56.86,0,0,1-8.63,1.08c-3,.18-6,.27-9.19.16-1.59-.05-3.16-.15-4.77-.36l-1.2-.18-1.1-.2-2.18-.39a83.56,83.56,0,0,1-8.35-1.94,41.61,41.61,0,0,1-7.4-2.91,29.91,29.91,0,0,1-5.81-3.92,31.67,31.67,0,0,1-3.9-4.18,13.53,13.53,0,0,1-2.25-3.85,5.46,5.46,0,0,1-.28-1.76,3.1,3.1,0,0,1,.34-1.29,1.46,1.46,0,0,1,.51-.62c.15-.11.26-.13.33-.08.34.22-.27,1.34.87,2.94a15.61,15.61,0,0,0,2.55,2.77,39.72,39.72,0,0,0,4,3.29,35.94,35.94,0,0,0,12.23,5.16c2.49.62,5.17,1.1,8,1.56l2.15.35,1.1.17,1,.15c1.36.16,2.83.24,4.31.29,3,.1,5.93.06,8.77-.05a64,64,0,0,0,8-.71,31.13,31.13,0,0,0,12.21-4.8,34.6,34.6,0,0,0,4-3.23c1.09-1.07,2-2.06,2.7-2.89.34-.43.66-.8.95-1.12s.51-.62.72-.83C354.63,405.15,354.92,404.94,355.08,405Z"/><path class="h" d="M271.3,511.73c-.07,0-.24-.05-.25,0s0,.21-.09.42a.32.32,0,0,0,0,.14l0,0a.45.45,0,0,0-.14,0h0l.05,0,0,0v0h0l.06-.09a.25.25,0,0,0,.12,0,2.7,2.7,0,0,0,.89-.62,21.45,21.45,0,0,1,1.73-1.45c.67-.49,1.42-1,2.24-1.49,1.63-1,3.52-2,5.36-3.18a14.22,14.22,0,0,0,4.74-4.74,21.07,21.07,0,0,0,2.51-7.48,91.16,91.16,0,0,0,.87-9.39c.24-3.36.48-6.84.72-10.4,2.1-28.49,4.93-51.5,6.3-51.4s.79,23.28-1.31,51.77c-.28,3.56-.56,7-.82,10.39a80.89,80.89,0,0,1-1.23,9.9,24.2,24.2,0,0,1-3.57,8.88,15.67,15.67,0,0,1-3,3.32,19.74,19.74,0,0,1-3.37,2.2c-2.21,1.15-4.2,1.88-5.86,2.61-.84.35-1.59.71-2.28,1s-1.23.65-1.86,1a3.1,3.1,0,0,1-2.31.48,1.78,1.78,0,0,1-.55-.28,1.07,1.07,0,0,1-.43-.67,1.17,1.17,0,0,1,.28-1,1.33,1.33,0,0,1,.56-.38.62.62,0,0,1,.63.07.34.34,0,0,1,.1.33C271.37,511.69,271.34,511.72,271.3,511.73Z"/><path class="h" d="M351.61,499.22c-.08.33-1.31.37-3.47.17-1.08-.11-2.39-.28-3.9-.5l-1.2-.19-.37-.08-.48-.14a3.84,3.84,0,0,1-.93-.46,3.5,3.5,0,0,1-1.32-1.69,5.05,5.05,0,0,1-.18-.55l-.07-.29,0-.22c0-.25-.09-.51-.13-.77-1.21-7.61-2.47-18.17-3.34-29.88-1.77-23.43-1.3-42.51.06-42.55s3.17,18.86,4.92,42.17c.87,11.67,1.57,22.23,1.88,29.91,0,.32,0,.63,0,.93a.65.65,0,0,0,.19.43.86.86,0,0,0,.18.14l.11.07.23.08,1.1.37c1.45.48,2.69.93,3.7,1.32C350.61,498.28,351.69,498.88,351.61,499.22Z"/><path class="h" d="M197.08,398.08c-.62.24-3.36-5.05-6.8-14-1.72-4.49-3.58-9.9-5.4-16s-3.6-12.85-5.16-20S177,334,176.11,327.7s-1.42-12-1.69-16.79c-.59-9.59-.26-15.55.39-15.59,1.48-.09,3.58,23.4,9.8,51.67C190.68,375.29,198.46,397.56,197.08,398.08Z"/><path class="h" d="M103.46,409.29c-1.39-.38,4.38-25.31,10.25-56.25s9.75-56.24,11.17-56.08-.29,25.85-6.26,57S104.73,409.65,103.46,409.29Z"/><path class="h" d="M197.55,397.58c.42.36-3,5.35-10.72,11.12A68.63,68.63,0,0,1,172,416.88,77,77,0,0,1,152,422a83.21,83.21,0,0,1-20.69-.19,89.51,89.51,0,0,1-8.88-1.66,48.91,48.91,0,0,1-7.54-2.55,29.38,29.38,0,0,1-9.59-6.39,9.63,9.63,0,0,1-.71-.78,4.55,4.55,0,0,1-.48-.87,4.84,4.84,0,0,1-.34-1.41c0-.35,0-.93.31-.78a1.62,1.62,0,0,0,.48.17c.07,0,.09-.07,0-.14s-.09.05,0,.17l.19.31a8.36,8.36,0,0,0,.66.94,3.88,3.88,0,0,0,.46.45l.69.45a38.59,38.59,0,0,0,9.61,4.58,56.36,56.36,0,0,0,7.17,1.8c2.61.49,5.5.81,8.5,1.13a94.81,94.81,0,0,0,19.59-.19,86.08,86.08,0,0,0,19-4.42,84.09,84.09,0,0,0,14.48-6.82C192.73,401,197,397,197.55,397.58Z"/><path class="h" d="M182.33,509.28c.07.34-1.42,1-4.15,1.79-1.37.42-3.06.89-5,1.4l-.74.2c-.35.08-.81.2-1.21.25a3.32,3.32,0,0,1-2.44-.44,3.26,3.26,0,0,1-1.26-2.31c0-.24-.06-.5-.08-.75l0-.65c0-.31,0-.62-.08-.94-.83-10.18-1.41-24.29-1.13-39.88.49-31.2,4.27-56.26,5.59-56.11s-.1,25.25-.59,56.2c-.28,15.47-.26,29.49-.34,39.66,0,.32,0,.63,0,.94v.43a.77.77,0,0,0,.12.61.72.72,0,0,0,.58.16h.36l.76-.1c2-.25,3.75-.44,5.18-.57C180.66,508.92,182.27,508.94,182.33,509.28Z"/><path class="h" d="M144.12,507.8c.06.27-.79.75-2.42,1.39-.81.32-1.82.67-3,1.07l-1.91.62a4.17,4.17,0,0,1-3.32-.19,3.74,3.74,0,0,1-1.57-2.25c-.15-.55-.2-.83-.28-1.14s-.13-.62-.21-.94c-.27-1.27-.56-2.63-.87-4.05-.58-2.85-1.18-6-1.75-9.34-1.16-6.73-2.24-14.38-3.09-22.52-2.92-27.61-1.83-50.15-.5-50.14s2.58,22.3,5.47,49.62c.85,8.07,1.73,15.68,2.53,22.4.4,3.36.78,6.5,1.12,9.37.17,1.43.34,2.8.49,4.08,0,.33.07.64.11,1s.07.65.07.69a.94.94,0,0,0,.23.63.77.77,0,0,0,.43.19l.24,0a1.29,1.29,0,0,0,.31,0l2-.28q1.86-.25,3.18-.36C143.08,507.47,144.06,507.52,144.12,507.8Z"/><path class="h" d="M122.4,120.64c0-.14.81-.35,2.44-.64a32,32,0,0,1,7.23-.16,38.45,38.45,0,0,1,11.13,2.85,39.35,39.35,0,0,1,12.72,8.49,37.07,37.07,0,0,1,5.62,7c.4.68.79,1.37,1.2,2.06s.69,1.46,1,2.2c.17.37.36.74.51,1.13s.28.78.43,1.17a24.2,24.2,0,0,1,.78,2.41,39.51,39.51,0,0,1-.06,21.41,38.65,38.65,0,0,1-12.89,19.91,40.18,40.18,0,0,1-37,6.29,35.73,35.73,0,0,1-11.19-6.13,39.17,39.17,0,0,1-12.87-19.91,37.61,37.61,0,0,1,.28-21.45,46,46,0,0,1,9.42-16,47.9,47.9,0,0,1,6-5.48,41.52,41.52,0,0,1,6.13-3.83,31.26,31.26,0,0,1,11-3.34,23.93,23.93,0,0,1,7.25.33c1.61.43,2.42.72,2.39.85-.06.41-3.46-.67-9.43.36a31.72,31.72,0,0,0-10.19,3.77,42,42,0,0,0-5.62,3.85,48.83,48.83,0,0,0-5.43,5.36A44,44,0,0,0,95,148.28a34.6,34.6,0,0,0,.09,19.45,35.92,35.92,0,0,0,11.78,17.87,32.17,32.17,0,0,0,10,5.4,36.59,36.59,0,0,0,33.29-5.58,35.21,35.21,0,0,0,11.77-17.85A36.52,36.52,0,0,0,162.3,148a34.07,34.07,0,0,0-8.4-14.88,38.8,38.8,0,0,0-11.61-8.43,40.79,40.79,0,0,0-10.43-3.35C125.87,120.44,122.44,121,122.4,120.64Z"/><path class="h" d="M136.72,165.9c-1.1-.14-1.67-2.86-1.28-6.08s1.6-5.72,2.7-5.59,1.66,2.85,1.27,6.08S137.81,166,136.72,165.9Z"/><path class="h" d="M152.23,164.26c-.95-.6-.55-2.9.23-5.42s1.81-4.63,2.93-4.57c.54,0,1,.69,1.21,1.74a9.12,9.12,0,0,1-2.37,7.52C153.45,164.27,152.7,164.54,152.23,164.26Z"/><path class="h" d="M162,147.9c-.34.43-3.41-1.36-8.1-4.61-1.18-.81-2.46-1.72-3.8-2.7a9.84,9.84,0,0,0-1.9-1.14,2.33,2.33,0,0,0-1.57-.18,7.52,7.52,0,0,0-2,1c-.81.51-1.76,1.06-2.68,1.56a46.37,46.37,0,0,1-18.41,5.42c-3.86.29-7.21.28-10,.45a54.06,54.06,0,0,0-6.51.75c-1.53.27-2.42.45-2.54.18s.56-.89,2-1.65a24.76,24.76,0,0,1,6.66-2.08c2.88-.56,6.31-.84,9.94-1.32a53,53,0,0,0,11.42-2.79,54.35,54.35,0,0,0,5.57-2.43c.89-.45,1.7-.89,2.58-1.39a10.2,10.2,0,0,1,3.27-1.29,5.71,5.71,0,0,1,2,0,6.33,6.33,0,0,1,1.75.61,12.92,12.92,0,0,1,2.42,1.72q1.92,1.65,3.51,3.08C159.84,144.89,162.29,147.47,162,147.9Z"/><path class="h" d="M87.35,330.41c-.52,0-1.17-8.15-1.16-21.36,0-6.61.21-14.48.67-23.2s1.28-18.31,2.41-28.33,2.58-19.53,4.06-28.14,3.09-16.31,4.6-22.75c3-12.87,5.46-20.67,6-20.54s-.93,8.15-3.19,21.1c-1.15,6.48-2.41,14.2-3.73,22.78S94.4,248,93.25,258s-2,19.46-2.71,28.12-1.18,16.46-1.53,23C88.29,322.26,87.94,330.41,87.35,330.41Z"/><path class="h" d="M151.65,221.44c-.5.17-1.59-1.45-2.5-4.36a47.07,47.07,0,0,1-1.84-11.59,68.92,68.92,0,0,1,.4-11.59c.38-2.94.9-4.75,1.45-4.75s1,1.83,1.38,4.77.56,7,.77,11.38.42,8.38.62,11.25S152.19,221.26,151.65,221.44Z"/><path class="h" d="M120.64,328.11c.27.44-1.13,1.95-4,3.31a25.74,25.74,0,0,1-5.32,1.74,38.8,38.8,0,0,1-6.75.79,41.72,41.72,0,0,1-12.1-1.39c-3-.84-4.73-1.8-4.61-2.32.28-1.13,7.65,0,16.6-.28,2.23-.08,4.34-.22,6.25-.43s3.62-.48,5-.8C118.54,328.17,120.34,327.61,120.64,328.11Z"/><path class="h" d="M97.65,429.07c0,.12-.24.4-.92.7a7.57,7.57,0,0,1-3.2.55,9,9,0,0,1-2.37-.39,9.78,9.78,0,0,1-1.3-.52,13.29,13.29,0,0,1-1.76-1.1c-.11,0-.07-.14-.07-.23v-.27l0-.55c0-.34.05-.7.08-1.06s.07-1,.11-1.54c.07-1.06.16-2.18.24-3.36.74-9.41,2-22.37,3.7-36.67,3.33-28.58,6.93-51.65,8-51.52s-.71,23.4-4,52c-1.67,14.29-3.4,27.2-4.86,36.53-.18,1.16-.36,2.27-.53,3.32-.08.53-.17,1-.25,1.53l0,.18,0,.07,0,.15c0,.1-.07.23,0,.31a3.21,3.21,0,0,0,.47.41,7.84,7.84,0,0,0,1,.54,8.15,8.15,0,0,0,1.88.63C96.11,429.26,97.56,428.76,97.65,429.07Z"/><path class="h" d="M211.31,83.63c-.05-.11.66-.55,2.1-1.31.72-.38,1.67-.69,2.78-1.13.56-.21,1.18-.35,1.84-.54a15.67,15.67,0,0,1,2.14-.49,33.22,33.22,0,0,1,11.27-.2,30.87,30.87,0,0,1,3.37.67l1.74.45,1.77.59c1.21.36,2.37,1,3.6,1.45l1.8.94.91.48.88.56a33.44,33.44,0,0,1,6.87,5.52A34,34,0,0,1,258,98.36a41.07,41.07,0,0,1,4.83,20.35,42.22,42.22,0,0,1-6.67,22.15,28.35,28.35,0,0,1-9,8.7,37.76,37.76,0,0,1-11.92,4.62,41.93,41.93,0,0,1-24.71-2.35A36.17,36.17,0,0,1,193,136.66a38.75,38.75,0,0,1-5.26-20.26,36.69,36.69,0,0,1,1.42-9.46,34.6,34.6,0,0,1,3.57-8.07,35.16,35.16,0,0,1,4.83-6.33,38.82,38.82,0,0,1,5.33-4.67A37.37,37.37,0,0,1,213,82.76a33.54,33.54,0,0,1,4-1c1.16-.2,2.16-.33,3-.41,1.63-.07,2.47,0,2.48.07,0,.35-3.4.4-9,2.62a38.61,38.61,0,0,0-9.36,5.38A37.18,37.18,0,0,0,199.19,94a33.41,33.41,0,0,0-4.35,6.09,32.36,32.36,0,0,0-3.12,7.56,34.28,34.28,0,0,0-1.13,8.78,36.16,36.16,0,0,0,5.13,18.63,33.26,33.26,0,0,0,16.06,13.7,39,39,0,0,0,22.73,2.09c7.76-1.59,14.89-5.61,18.88-11.84a39.51,39.51,0,0,0,6.31-20.38,38.68,38.68,0,0,0-4.19-18.95,32.85,32.85,0,0,0-11.29-12.55l-.81-.55-.84-.48-1.66-.93c-1.14-.5-2.21-1.1-3.34-1.47l-1.65-.62-1.63-.48a28,28,0,0,0-3.17-.76,34.18,34.18,0,0,0-10.75-.38,17.76,17.76,0,0,0-2.08.33c-.65.13-1.26.21-1.82.37-1.1.32-2.06.53-2.8.8A7.35,7.35,0,0,1,211.31,83.63Z"/><path class="h" d="M262.81,281.6c-.52-.06.12-8,.66-20.75.07-1.6.13-3.27.2-5s.09-3.56.14-5.44c.12-3.76.11-7.77.15-12,0-8.45-.26-17.73-.82-27.46s-1.47-19-2.44-27.36c-.53-4.19-1-8.18-1.56-11.89-.27-1.86-.5-3.66-.78-5.38s-.53-3.38-.79-5c-2-12.62-3.61-20.4-3.11-20.52s2.81,7.49,5.48,20.08c.32,1.58.66,3.23,1,5s.64,3.52,1,5.39c.69,3.72,1.26,7.72,1.88,11.93,1.14,8.44,2.13,17.75,2.73,27.56s.69,19.18.55,27.69c-.12,4.25-.22,8.29-.46,12.07-.12,1.89-.2,3.71-.34,5.46s-.28,3.43-.42,5C264.71,273.82,263.22,281.65,262.81,281.6Z"/><path class="h" d="M203.63,385.63c-.08-.25,1.19-.71,3.2-1.76a8.2,8.2,0,0,0,2.95-2.45,4.53,4.53,0,0,0,.72-2,20.77,20.77,0,0,0,0-2.82c-.37-8.45-.39-20.09-.21-32.94s.55-24.48.93-32.9.77-13.61,1.24-13.62.95,5.22,1.17,13.65.24,20.07.06,32.92-.54,24.48-.79,32.87a19.32,19.32,0,0,1-.24,3.18,6.34,6.34,0,0,1-1.34,2.85,8.65,8.65,0,0,1-3.93,2.51C205,385.82,203.69,385.83,203.63,385.63Z"/><path class="h" d="M261.16,385.09c-.14,0-.22-.38-.62-.64a4.57,4.57,0,0,0-2.45-.12,15.22,15.22,0,0,1-2.13.08,5.23,5.23,0,0,1-1.36-.28,3.23,3.23,0,0,1-1.41-1,6.09,6.09,0,0,1-1-3.13c-.12-1-.25-2-.38-3.1-1-8.71-1.79-20.75-2.41-34.06s-1-25.35-1.21-34.07-.27-14.11.2-14.16,1.39,5.31,2.2,14,1.58,20.75,2.2,34.05,1,25.34,1.42,34c.05,1.09.09,2.12.13,3.1a4.84,4.84,0,0,0,.37,2.19,2.13,2.13,0,0,0,1.44.79,19.16,19.16,0,0,0,1.93.2c1.2.09,2.38.25,2.93,1a1.14,1.14,0,0,1,.26.83C261.26,385,261.22,385.08,261.16,385.09Z"/><path class="h" d="M304.22,124.69c0-.22,3-1.23,8.72-1.63a56.07,56.07,0,0,1,10.44.39,36.73,36.73,0,0,1,13.46,3.94,27.71,27.71,0,0,1,6.71,5,24.55,24.55,0,0,1,5.1,7.57,36,36,0,0,1,2.57,9.29,74.17,74.17,0,0,1,.73,10,44.63,44.63,0,0,1-1,10.64,29.34,29.34,0,0,1-4.79,10.34c-4.57,6.33-11.54,10.86-19.2,13.33a41.85,41.85,0,0,1-23.31.71,35.17,35.17,0,0,1-10.33-4.57,26.68,26.68,0,0,1-7.75-7.73,27.73,27.73,0,0,1-3.83-9.64,50,50,0,0,1-1-9.47A52.8,52.8,0,0,1,283,146a35.23,35.23,0,0,1,6.72-12.34A29.2,29.2,0,0,1,298,127a21.52,21.52,0,0,1,6.25-2.28c1.49-.28,2.3-.24,2.32-.13s-.73.39-2.1.9a27.44,27.44,0,0,0-5.68,2.85,29.58,29.58,0,0,0-7.26,6.76,33.84,33.84,0,0,0-5.75,11.73,51.69,51.69,0,0,0-1.66,15.9,47.64,47.64,0,0,0,1.07,8.81,24.56,24.56,0,0,0,3.48,8.37c3.4,5.15,9.33,8.81,16,10.53a38.41,38.41,0,0,0,21.11-.73c7-2.24,13.24-6.34,17.25-11.84a25.43,25.43,0,0,0,4.24-8.92,40.92,40.92,0,0,0,1.05-9.73c0-6.55-.51-12.8-2.66-18a23.06,23.06,0,0,0-10.13-11.35,31.08,31.08,0,0,0-6.32-2.78,46.08,46.08,0,0,0-6.1-1.43,65.09,65.09,0,0,0-10.08-1C307.39,124.53,304.27,125,304.22,124.69Z"/><path class="h" d="M295.54,161.06c-1.08.15-2.3-2.37-2.19-5.64s1.5-5.69,2.58-5.47,1.51,2.71,1.42,5.61S296.65,160.92,295.54,161.06Z"/><ellipse class="h" cx="315.87" cy="157.67" rx="2" ry="5.1"/><path class="h" d="M312.54,182.92c.21-.53,1.66-.39,3.18-1.42a4.8,4.8,0,0,0,1-.94,4.29,4.29,0,0,0,.39-.59l.14-.32c0-.08,0-.07,0-.06s0,0,0,0c-.08-.15-.19,0-.16,0s0,0,0,0l-.27.14c-.22.12-.45.22-.68.32-.45.21-.91.37-1.36.53a15,15,0,0,1-2.66.62,13.54,13.54,0,0,1-4.56-.13c-2.56-.54-3.83-1.62-3.65-2.11s1.67-.49,3.83-.71a23.24,23.24,0,0,0,3.67-.67,18.06,18.06,0,0,0,2-.68c.34-.15.69-.29,1-.46.17-.08.34-.16.51-.26l.92-.49a3.85,3.85,0,0,1,2.34-.49,3.18,3.18,0,0,1,1.94,1,4.33,4.33,0,0,1,.7,4.17,2.92,2.92,0,0,1-.21.53l-.24.46c-.14.22-.29.44-.44.64a6.36,6.36,0,0,1-3.23,2.14,5,5,0,0,1-3.38-.17C312.69,183.58,312.44,183.16,312.54,182.92Z"/><path class="h" d="M293.13,219.58c-1.09-.26-.41-7,.92-15.09s2.88-14.69,4-14.58,1.34,7,0,15.23S294.19,219.83,293.13,219.58Z"/><path class="h" d="M353.84,221.44c-.57,0-1.2-2.27-2.1-6s-2.12-8.77-3.37-14.49a96.75,96.75,0,0,1-2.25-14.92c-.2-3.9.17-6.33.7-6.36s1.2,2.27,2.1,6,2.12,8.77,3.36,14.48a96.06,96.06,0,0,1,2.26,14.92C354.74,219,354.37,221.4,353.84,221.44Z"/><path class="h" d="M354.1,280.18c1.1.07,1.49,8.14.87,18-.08,1.24-.17,2.44-.27,3.61s-.19,2.24-.35,3.42a9,9,0,0,1-1.19,3.54A5.57,5.57,0,0,1,350.4,311a5.36,5.36,0,0,1-4.61-.32c-.93-.61-1.13-1.23-1-1.41s.7-.09,1.48-.06a4.86,4.86,0,0,0,2.87-.76,3,3,0,0,0,1.09-1.31,6.76,6.76,0,0,0,.41-2.29c0-1.05.07-2.15.11-3.29s.11-2.37.18-3.61C351.6,288.07,353,280.12,354.1,280.18Z"/><path class="h" d="M240.52,262.48c-.83-.84,13.06-15.49,28.21-35.14s25.94-36.7,27-36.11c.46.27-1.64,4.91-5.77,12a251.21,251.21,0,0,1-18,26.54,251.74,251.74,0,0,1-21.19,24.1C244.86,259.66,240.89,262.85,240.52,262.48Z"/><path class="h" d="M223.49,262.06c-.41.16-3-5.05-6.23-13.82-1.65-4.38-3.42-9.67-5.2-15.6s-3.5-12.52-5.06-19.5-2.73-13.69-3.65-19.81-1.51-11.67-1.87-16.33c-.73-9.34-.63-15.14-.19-15.16,1-.08,2.84,22.92,9,50.57S224.46,261.69,223.49,262.06Z"/><path class="h" d="M358.8,230.12c-.12.06-.32-.09-.52-.53a3.38,3.38,0,0,1,0-1.92,20,20,0,0,1,3-5.57c.35-.52.72-1.06,1.09-1.63a8.69,8.69,0,0,0,.84-1.54,3.7,3.7,0,0,0,0-1.5c-.1-.64-.31-1.47-.49-2.27a82.77,82.77,0,0,0-2.9-10.29c-2.48-7.08-6.49-12.7-9.36-16.89s-4.65-6.86-4.22-7.22,2.89,1.67,6.42,5.44a61.19,61.19,0,0,1,5.74,7.16,44.72,44.72,0,0,1,5.18,10.15,60.48,60.48,0,0,1,2.76,10.94c.14.86.29,1.64.37,2.6a6.47,6.47,0,0,1-.42,3.09,10,10,0,0,1-1.43,2.16c-.47.56-.92,1.08-1.36,1.55a41.79,41.79,0,0,0-3.78,4.42,5.87,5.87,0,0,0-.67,1.26C359,229.83,358.93,230.07,358.8,230.12Z"/><path class="h" d="M141.77,187.09c.09.25-.29.69-1.15,1.12a10.16,10.16,0,0,1-3.92.95,13.87,13.87,0,0,1-6-1.06,15.18,15.18,0,0,1-1.62-.8,8.09,8.09,0,0,1-1.74-1.28,3.91,3.91,0,0,1-1.14-3.05,4.18,4.18,0,0,1,.48-1.63,5.69,5.69,0,0,1,.89-1.19,5.41,5.41,0,0,1,2.39-1.37,6.17,6.17,0,0,1,2.5-.1,16.53,16.53,0,0,1,3.44,1.08,14.78,14.78,0,0,0,4.75,1.05c2.85.16,4.74-.38,5,.15.12.24-.2.71-1,1.25a10.14,10.14,0,0,1-3.78,1.43,13.6,13.6,0,0,1-6.11-.38,17.13,17.13,0,0,0-2.8-.69,2.43,2.43,0,0,0-.91,0,1.76,1.76,0,0,0-.65.39,2.15,2.15,0,0,0-.18.23c0,.08,0,0,0,0s0,0,0,.06a4.44,4.44,0,0,0,.9.72,13.18,13.18,0,0,0,1.18.71,15.22,15.22,0,0,0,4.6,1.57C139.65,186.83,141.59,186.53,141.77,187.09Z"/><path class="h" d="M146.91,78.36c.38.45-4.67,5-11.37,13.71A145,145,0,0,0,114.65,129a138.86,138.86,0,0,0-6.53,22.47c-.19.88-.37,1.75-.55,2.61s-.28,1.72-.42,2.57c-.26,1.68-.57,3.32-.77,4.91-.34,3.19-.77,6.15-.89,8.89-.77,10.91-.29,17.74-.94,17.8-.44.07-1.94-6.72-1.89-17.92-.06-2.8.22-5.85.42-9.14.14-1.64.39-3.32.59-5.06.11-.87.23-1.76.34-2.65s.32-1.79.49-2.7a122.5,122.5,0,0,1,6.42-23.21A127.43,127.43,0,0,1,121.64,106a116,116,0,0,1,11.73-15.76C140.78,81.86,146.61,78,146.91,78.36Z"/><path class="h" d="M149.2,82.11c0,.29-.5.55-1.33,1a10.49,10.49,0,0,0-1.35.76,1.76,1.76,0,0,0-.82,1.05.85.85,0,0,0,.08.46,1.25,1.25,0,0,0,.35.33,3.2,3.2,0,0,0,1.84.41,4.29,4.29,0,0,0,2.15-.93A5.68,5.68,0,0,0,151.83,83a3.82,3.82,0,0,0-.73-4.5,4.32,4.32,0,0,0-1.93-1.09,3.61,3.61,0,0,0-1.93,0,5.44,5.44,0,0,0-2.67,1.8c-.55.64-.81,1.15-1.1,1.12s-.55-.62-.33-1.75a5.76,5.76,0,0,1,3-3.76,6.14,6.14,0,0,1,3.56-.7,7.32,7.32,0,0,1,3.83,1.58,7.11,7.11,0,0,1,2.52,4,7.66,7.66,0,0,1,.14,2.53,8.81,8.81,0,0,1-.68,2.42,9.06,9.06,0,0,1-3.06,3.7A7.52,7.52,0,0,1,148,89.76a6.09,6.09,0,0,1-4.1-1.66A3.87,3.87,0,0,1,142.77,86a3.53,3.53,0,0,1,.32-2.18,4,4,0,0,1,2.5-2,6.21,6.21,0,0,1,2-.26C148.63,81.58,149.18,81.85,149.2,82.11Z"/><path class="h" d="M239.06,267.48c.48-.33,2.78,2.36,6.57,6.49s9.19,9.65,16.39,13.77a42.18,42.18,0,0,0,10.74,4.34,34.59,34.59,0,0,0,9.38,1.06,18,18,0,0,0,6.18-1c1.36-.53,2.05-1.09,2.28-.89s-.11,1.12-1.49,2.23A14.21,14.21,0,0,1,282.4,296a30.67,30.67,0,0,1-10.43-.26A39.32,39.32,0,0,1,260,291.22a48.67,48.67,0,0,1-10-7.69,59.69,59.69,0,0,1-6.59-7.78C240.1,271,238.63,267.77,239.06,267.48Z"/><path class="h" d="M221.93,268.76c.46.14,0,3.55-3,8.06a40.36,40.36,0,0,1-6.15,7.06,82.7,82.7,0,0,1-8.89,6.95c-3.25,2.24-6.38,4.32-9.42,6a42.8,42.8,0,0,1-8.54,3.78,21.47,21.47,0,0,1-6.24,1.05c-1.51,0-2.33-.24-2.35-.5,0-.62,3.1-1.08,7.59-3.2a62.42,62.42,0,0,0,7.64-4.28c2.78-1.8,5.83-3.95,9.05-6.17s6.17-4.36,8.74-6.44a56.79,56.79,0,0,0,6.33-6C220,271.4,221.35,268.54,221.93,268.76Z"/><path class="h" d="M224,262.61c-.12.06-.29,0-.53-.21a1.55,1.55,0,0,1-.33-.48,2.32,2.32,0,0,1-.23-.78,4.66,4.66,0,0,1,2.4-4.29,5.36,5.36,0,0,1,3.68-.8,5.67,5.67,0,0,1,1.1.31,7.37,7.37,0,0,1,1,.51,6.36,6.36,0,0,1,1.63,1.52,8.18,8.18,0,0,1,1.57,4.2,9.16,9.16,0,0,1-.76,4.66,8.12,8.12,0,0,1-3.27,3.64,5.79,5.79,0,0,1-2.5.79,5.08,5.08,0,0,1-2.63-.52,6.9,6.9,0,0,1-2.85-3,11,11,0,0,1-1.11-3,9.09,9.09,0,0,1,.06-4.42c.31-1,.7-1.47,1-1.41.59.1.44,2.24,1.68,5a10.92,10.92,0,0,0,1.21,2,4,4,0,0,0,1.61,1.42,1.77,1.77,0,0,0,1.58-.3,4.71,4.71,0,0,0,1.63-1.94,5.79,5.79,0,0,0-.18-5.05,2.38,2.38,0,0,0-3.06-1.17,4,4,0,0,0-1.43.86,2.87,2.87,0,0,0-.72,1C224.16,261.89,224.23,262.47,224,262.61Z"/><path class="h" d="M217.37,264.89c0,.3-.39.58-.79,1.12a3.68,3.68,0,0,0-.55,1.05,4.37,4.37,0,0,0-.21,1.49,2.91,2.91,0,0,0,.46,1.48,1.63,1.63,0,0,0,1.13.61,2.79,2.79,0,0,0,1.71-.44,3.45,3.45,0,0,0,1.4-1.51,5.57,5.57,0,0,0-.44-4.52,12.32,12.32,0,0,0-2.9-3.55c-1.06-.95-2-1.71-2.64-2.32s-.93-1.06-.81-1.3.67-.26,1.54-.07a14.09,14.09,0,0,1,3.53,1.36,12.07,12.07,0,0,1,4.47,4,9.62,9.62,0,0,1,1.4,3.58,7.74,7.74,0,0,1-.5,4.42,7,7,0,0,1-3.18,3.31,6.16,6.16,0,0,1-4.36.6,4.9,4.9,0,0,1-3.29-2.68,5.41,5.41,0,0,1-.32-3.35,4.65,4.65,0,0,1,2.71-3.5C216.77,264.35,217.35,264.65,217.37,264.89Z"/><path class="h" d="M231,267.31c.15-.21.56-.26,1.14,0a3.87,3.87,0,0,1,1.71,2.08,6.61,6.61,0,0,1,.17,4,7.36,7.36,0,0,1-2.79,4.11,9,9,0,0,1-4.41,1.59,9.84,9.84,0,0,1-3.55-.34c-1.91-.56-2.85-1.41-2.71-1.92s1.33-.7,3-.9a11.67,11.67,0,0,0,5.38-1.69,5.21,5.21,0,0,0,1.61-2,6.28,6.28,0,0,0,.57-2.21C231.21,268.73,230.65,267.79,231,267.31Z"/><path class="h" d="M237.69,266.84c.07-.27.37-.46.66-.69a3,3,0,0,0,.82-.93,4.81,4.81,0,0,0,.57-1.62,3.79,3.79,0,0,0,0-1,2.29,2.29,0,0,0-.24-.78,9.17,9.17,0,0,0-3.35-3.07c-1.21-.77-2.07-1.39-2-1.94s1.13-.92,2.85-.75a8.27,8.27,0,0,1,3,.92,7.13,7.13,0,0,1,3,3,5.66,5.66,0,0,1,.62,2.49,6.32,6.32,0,0,1-.41,2.19,5.42,5.42,0,0,1-2.37,2.78,3,3,0,0,1-2.55.23C237.78,267.45,237.62,267.09,237.69,266.84Z"/><path class="h" d="M238.5,268.12c.5-.1,1.25.74,1.36,2.43a6.87,6.87,0,0,1-.49,2.86,9,9,0,0,1-2,3,9.18,9.18,0,0,1-3,1.93,6.85,6.85,0,0,1-2.86.47c-1.69-.12-2.53-.87-2.42-1.38s1-.89,2-1.41a12.72,12.72,0,0,0,4.94-4.22,15.75,15.75,0,0,0,1-1.67C237.6,269.07,237.93,268.22,238.5,268.12Z"/><path class="h" d="M214.85,128.68c-.93.1-1.93-1.9-2.22-4.47s.22-4.75,1.15-4.86,1.93,1.89,2.22,4.47S215.78,128.57,214.85,128.68Z"/><ellipse class="h" cx="235.96" cy="121.89" rx="1.7" ry="4.25"/><path class="h" d="M226.78,147.09c.23-.43,1.71.08,3.57-.68a4.06,4.06,0,0,0,2.24-2.1,4.38,4.38,0,0,0,.36-1.75,4.23,4.23,0,0,0-.12-.93s0,0,0,0h0l-1.16.15c-.88.11-1.73.2-2.54.28-1.62.16-3.08.25-4.32.28-2.48.06-4-.13-4.11-.6s1.37-1.11,3.75-1.78c1.19-.33,2.62-.67,4.22-1,.79-.16,1.63-.32,2.5-.47l1.5-.25a10.92,10.92,0,0,1,1.34-.17c.4,0,1-.25,1.09.34a8.74,8.74,0,0,1,1,2.49,7,7,0,0,1,.14,1.75,6.86,6.86,0,0,1-.93,3.13,6,6,0,0,1-4.43,3,5.18,5.18,0,0,1-3.35-.61C226.88,147.71,226.67,147.28,226.78,147.09Z"/><path class="h" d="M270.13,70.74c.09-.06.43.14.82.78a5,5,0,0,1,.58,3.17,5.32,5.32,0,0,1-.86,2.29,5.39,5.39,0,0,1-2.31,1.92,6.24,6.24,0,0,1-3.42.45,5.61,5.61,0,0,1-3.53-1.93A6.48,6.48,0,0,1,260,73.24a7,7,0,0,1,1.66-4.49A6.16,6.16,0,0,1,264,67.2a6.57,6.57,0,0,1,2.68-.4,8.74,8.74,0,0,1,4.93,1.94,12.23,12.23,0,0,1,3.29,4.17,33.89,33.89,0,0,1,1.89,4.76c1.07,3.16,2.07,6.48,3,9.9a61.75,61.75,0,0,1,2.11,10.32,25.34,25.34,0,0,1-1.17,10,37.34,37.34,0,0,1-8.81,14.14,68.3,68.3,0,0,1-8.28,7.28c-2.08,1.55-3.31,2.3-3.46,2.13s.79-1.27,2.58-3.12,4.46-4.44,7.37-7.89A38.09,38.09,0,0,0,277.69,107a22.91,22.91,0,0,0,.84-8.83,62.63,62.63,0,0,0-2.08-9.74c-.9-3.36-1.87-6.62-2.87-9.74A34.56,34.56,0,0,0,272,74.37a9.7,9.7,0,0,0-2.35-3.19,5.86,5.86,0,0,0-3.16-1.4,4,4,0,0,0-1.52.16,3.23,3.23,0,0,0-1.15.72,4.54,4.54,0,0,0-.78,1.22,5.27,5.27,0,0,0-.34,1.45,4.08,4.08,0,0,0,.65,2.6,3.41,3.41,0,0,0,2,1.3,4.35,4.35,0,0,0,2.33-.1,3.91,3.91,0,0,0,2.57-2.71,5.1,5.1,0,0,0,.08-2.64C270.17,71.16,270,70.82,270.13,70.74Z"/><path class="h" d="M289.45,274.35a.85.85,0,0,1,.41-.41l.35-.16.41-.2a5.82,5.82,0,0,0,1.89-1.47,16.44,16.44,0,0,0,2.2-3.31l.27-.53.14-.26v-.07c0-.1,0-.06,0-.08s-.06,0-.06,0h0l-.58-.08-.76-.08c-.29,0-.57-.08-.84-.13a15,15,0,0,1-3.08-.91,13.9,13.9,0,0,1-4.46-2.91,8.79,8.79,0,0,1-2.05-2.89c-.31-.8-.3-1.34,0-1.55.57-.44,2,.54,4.16,1.57a20.83,20.83,0,0,0,3.87,1.42,15.6,15.6,0,0,0,2.32.42c.2,0,.41.05.61.06l.72.05c.29,0,.59.05.91.1a10.37,10.37,0,0,1,1.44.35,4.84,4.84,0,0,1,2.33,1.56,3.92,3.92,0,0,1,.82,2.49,4.92,4.92,0,0,1-.83,2.46l-.32.55-.21.33c-.14.21-.29.41-.43.61a12.34,12.34,0,0,1-4,3.71,6.74,6.74,0,0,1-2.21.73,4.13,4.13,0,0,1-1.8-.18,4,4,0,0,1-.58-.28,2,2,0,0,1-.36-.33A.58.58,0,0,1,289.45,274.35Z"/><path class="h" d="M179.77,280c0,.28-.32.56-1,.8a7.14,7.14,0,0,1-2.93.41,6.62,6.62,0,0,1-2.24-.56,5.15,5.15,0,0,1-1.24-.81,5.69,5.69,0,0,1-1-1.21,5.19,5.19,0,0,1-.78-3.44,4.19,4.19,0,0,1,.87-2.05,4.57,4.57,0,0,1,1.72-1.31,18.46,18.46,0,0,1,2.65-.83c.78-.2,1.53-.38,2.26-.54,1.44-.33,2.76-.56,3.88-.71,2.25-.29,3.72-.2,3.88.33s-1,1.4-3.07,2.38c-1,.49-2.26,1-3.65,1.53-.69.26-1.43.52-2.19.77s-1.7.52-2.09.7a1.41,1.41,0,0,0-.3.18.4.4,0,0,0-.09.17,1.7,1.7,0,0,0,.13,1,2.87,2.87,0,0,0,.28.52,2.09,2.09,0,0,0,.39.41,5.05,5.05,0,0,0,1.18.68c.87.36,1.74.57,2.34.81S179.76,279.72,179.77,280Z"/><path class="h" d="M377.35,184c.43-.15,2.93,5.46,4.25,15.2a85.86,85.86,0,0,1,.5,17.2,100.51,100.51,0,0,1-3.66,20.78,117.82,117.82,0,0,1-16.5,34.29c-5.6,8-9.88,12.25-10.26,11.94s3-5.24,7.88-13.46a146.8,146.8,0,0,0,15-33.88,109.64,109.64,0,0,0,4.19-36.6C378.22,189.94,376.73,184.14,377.35,184Z"/><path class="h" d="M376.78,191.65c.24.11.29.67.08,1.59a7.92,7.92,0,0,1-2.05,3.69,6.53,6.53,0,0,1-2.88,1.65,5.38,5.38,0,0,1-4.18-.53,6.38,6.38,0,0,1-2.7-3.63,11.13,11.13,0,0,1-.46-4.21,10,10,0,0,1,3.69-7.26,6.77,6.77,0,0,1,3.59-1.41,7.19,7.19,0,0,1,3.19.45,5.33,5.33,0,0,1,3.25,3.1c.33,1,.08,1.64-.16,1.67s-.6-.38-1.17-.86a5.2,5.2,0,0,0-4.62-1.08,3.83,3.83,0,0,0-1.75,1,7.15,7.15,0,0,0-2,4.71,8.49,8.49,0,0,0,.22,2.76,3.13,3.13,0,0,0,.93,1.67,2.12,2.12,0,0,0,1.54.38,4.19,4.19,0,0,0,1.74-.59,12.27,12.27,0,0,0,2.47-2.23C376.09,191.87,376.52,191.53,376.78,191.65Z"/><path class="h" d="M213.52,258.21c-.65.82-17.49-11.84-35.3-30.66s-29.64-36.24-28.79-36.85,14,15.53,31.69,34.09S214.27,257.32,213.52,258.21Z"/><path class="h" d="M255.22,290.28c.12.27-2.41,1.77-6.86,3.46a66,66,0,0,1-8,2.43,71.61,71.61,0,0,1-20.35,1.9,66,66,0,0,1-8.29-.95c-4.68-.86-7.44-1.9-7.37-2.19.14-.75,11.56,1.93,25.68.53S255,289.56,255.22,290.28Z"/><path class="h" d="M196.17,290.28c-.23,0-.71-1.95-1.39-5.57-.35-1.81-.73-4-1.08-6.63s-.81-5.53-1.14-8.81c-.18-1.64-.37-3.35-.56-5.14s-.32-3.66-.48-5.59c-.36-3.86-.57-8-.81-12.34-.38-8.71-.54-18.3-.28-28.35s.95-19.63,1.81-28.3c.48-4.33.91-8.45,1.47-12.28.27-1.92.51-3.78.79-5.56l.84-5.1c.51-3.25,1.11-6.17,1.62-8.74s1-4.76,1.45-6.55c.87-3.58,1.47-5.53,1.7-5.49.51.1-.79,8.13-2.39,21.13-.2,1.62-.41,3.33-.62,5.1s-.39,3.63-.59,5.54c-.44,3.83-.76,7.93-1.15,12.24-.68,8.62-1.25,18.12-1.54,28.1s-.19,19.49,0,28.14c.16,4.33.26,8.44.49,12.28.1,1.92.17,3.78.29,5.56s.23,3.5.33,5.13C195.84,282.12,196.69,290.21,196.17,290.28Z"/><path class="h" d="M307.35,133.19c.38.38-.24,1.73-1.79,3.43a24.82,24.82,0,0,1-15.94,7.44c-2.3.11-3.73-.29-3.78-.82-.09-1.14,5-2.36,10.74-5.06S306.53,132.39,307.35,133.19Z"/><path class="h" d="M350.89,161.84c-.16.49-3.25.13-8-1.44-1.18-.42-2.49-.85-3.84-1.45-.68-.29-1.38-.58-2.1-.91L334.75,157a64.87,64.87,0,0,1-9.2-5.73,74.42,74.42,0,0,1-13.88-13.75c-3-4-4.52-6.67-4.11-7s2.71,1.72,6.21,5.11A153.82,153.82,0,0,0,327.94,148C339.65,156.85,351.29,160.63,350.89,161.84Z"/></svg>