<?xml version="1.0" encoding="utf-8"?>
<!-- Generator: Adobe Illustrator 23.0.3, SVG Export Plug-In . SVG Version: 6.00 Build 0)  -->
<svg version="1.1" id="Capa_1" xmlns="http://www.w3.org/2000/svg" xmlns:xlink="http://www.w3.org/1999/xlink" x="0px" y="0px"
	 viewBox="100 0 115 359" style="enable-background:new 0 0 915 359;" xml:space="preserve">
<style type="text/css">
	.st0{opacity:0.95;fill:#FFFFFF;}
	.st1{opacity:0.7278;fill:#FFFFFF;}
	.st2{opacity:0.7556;fill:#FFFFFF;}
	.st3{opacity:0.7833;fill:#FFFFFF;}
	.st4{opacity:0.8111;fill:#FFFFFF;}
	.st5{opacity:0.8389;fill:#FFFFFF;}
	.st6{opacity:0.9222;fill:#FFFFFF;}
	.st7{opacity:0.8944;fill:#FFFFFF;}
	.st8{opacity:0.7;fill:#FFFFFF;}
	.st9{opacity:0.8944;}
	.st10{fill:#FFFFFF;}
</style>
<g>
	<g>
		<path id="path14_9_" class="st0" d="M120.68,114.53c0.8,0,56.66,0,57.46,0c-0.36-0.71-28.28-56.57-28.73-57.46
			C148.97,57.95,121.04,113.83,120.68,114.53"/>
		<path id="path16_5_" class="st1" d="M184.19,241.21c0.8-0.01,56.66-0.64,57.46-0.65c-0.36-0.7-28.93-56.28-29.38-57.15
			C211.84,184.29,184.54,240.5,184.19,241.21"/>
		<path id="path18_5_" class="st2" d="M152.27,181.21c0.36,0.72,28.29,56.61,28.74,57.49c0.44-0.88,28.37-56.77,28.72-57.49
			C208.93,181.21,153.07,181.21,152.27,181.21"/>
		<path id="path20_5_" class="st3" d="M120.68,240.89c0.8,0,56.66,0,57.46,0c-0.36-0.71-28.3-56.64-28.73-57.48
			C148.98,184.25,121.04,240.18,120.68,240.89"/>
		<path id="path22_5_" class="st4" d="M57.5,240.89c0.8,0,56.65,0,57.46,0c-0.36-0.71-28.31-56.64-28.73-57.48
			C85.8,184.25,57.86,240.18,57.5,240.89"/>
		<path id="path24_5_" class="st3" d="M89.1,181.21c0.35,0.72,28.29,56.64,28.72,57.49c0.43-0.85,28.37-56.77,28.73-57.49
			C145.75,181.21,89.89,181.21,89.1,181.21"/>
		<path id="path26_5_" class="st5" d="M152.27,177.67c0.8,0,56.66,0,57.46,0c-0.36-0.71-28.28-56.61-28.72-57.49
			C180.56,121.07,152.63,176.96,152.27,177.67"/>
		<path id="path28_5_" class="st6" d="M89.1,177.67c0.8,0,56.65,0,57.45,0c-0.36-0.72-28.3-56.65-28.73-57.49
			C117.39,121.03,89.45,176.95,89.1,177.67"/>
		<path id="path30_5_" class="st7" d="M120.68,117.99c0.37,0.72,28.3,56.64,28.73,57.5c0.43-0.85,28.37-56.78,28.73-57.5
			C177.34,117.99,121.48,117.99,120.68,117.99"/>
		<path id="path32_5_" class="st8" d="M120.68,244.44c0.37,0.71,28.3,56.64,28.73,57.49c0.43-0.85,28.37-56.78,28.73-57.49
			C177.34,244.44,121.48,244.44,120.68,244.44"/>
	</g>
</g>
</svg>
