<?xml version="1.0" standalone="no"?>
<!DOCTYPE svg PUBLIC "-//W3C//DTD SVG 20010904//EN"
 "http://www.w3.org/TR/2001/REC-SVG-20010904/DTD/svg10.dtd">
<svg version="1.0" xmlns="http://www.w3.org/2000/svg"
 width="1441.000000pt" height="1441.000000pt" viewBox="0 0 1441.000000 1441.000000"
 preserveAspectRatio="xMidYMid meet">
<metadata>
Created by potrace 1.15, written by Peter Selinger 2001-2017
</metadata>
<g transform="translate(0.000000,1441.000000) scale(0.100000,-0.100000)"
fill="#000000" stroke="none">
<path d="M2309 11876 c-83 -30 -166 -103 -211 -188 -21 -39 -23 -56 -23 -178
0 -122 2 -139 23 -179 34 -62 103 -133 164 -167 l53 -29 4895 0 4895 0 53 29
c61 34 130 105 164 167 21 40 23 57 23 179 0 122 -2 139 -23 179 -34 62 -103
133 -164 167 l-53 29 -4880 2 c-3973 2 -4887 0 -4916 -11z"/>
<path d="M2869 11037 c-85 -32 -166 -104 -211 -189 l-23 -43 -3 -2490 c-2
-1705 1 -2512 8 -2560 17 -116 66 -203 173 -312 75 -77 107 -102 172 -134 47
-23 107 -43 145 -49 90 -14 8070 -14 8160 0 38 6 98 26 145 49 65 32 97 57
172 134 107 109 156 196 173 312 7 48 10 855 8 2560 l-3 2490 -24 45 c-32 61
-106 136 -166 168 -47 25 -58 27 -185 27 -130 0 -137 -1 -188 -29 -61 -34
-130 -105 -164 -167 l-23 -44 -3 -2397 -2 -2398 -3820 0 -3820 0 -2 2398 -3
2397 -24 45 c-32 62 -106 136 -166 168 -45 23 -63 27 -170 29 -82 2 -131 -1
-156 -10z"/>
<path d="M8469 10196 c-84 -30 -166 -103 -211 -188 -21 -39 -23 -56 -23 -178
0 -122 2 -139 23 -179 34 -62 103 -133 164 -167 l53 -29 298 -5 297 -5 -650
-650 -650 -650 -727 727 c-498 496 -742 733 -773 750 -41 21 -58 23 -180 23
-122 0 -139 -2 -178 -23 -42 -23 -1678 -1378 -1775 -1471 -27 -25 -61 -68 -75
-96 -25 -47 -27 -58 -27 -185 0 -127 2 -138 27 -185 32 -60 107 -135 165 -164
37 -18 60 -21 182 -21 111 0 148 4 176 17 19 9 360 288 757 619 l723 602 740
-738 c505 -504 754 -746 785 -762 41 -21 58 -23 180 -23 122 0 139 2 180 23
31 17 301 279 862 840 l817 816 3 -300 3 -299 29 -53 c34 -61 105 -130 167
-164 40 -21 57 -23 179 -23 130 0 137 1 188 29 61 34 130 105 164 167 l23 44
0 835 0 835 -23 44 c-34 62 -103 133 -164 167 l-53 29 -820 2 c-653 2 -827 0
-856 -11z"/>
<path d="M7069 5157 c-85 -32 -166 -104 -211 -189 -23 -43 -23 -46 -26 -454
l-3 -410 -897 -470 c-969 -506 -972 -509 -1031 -619 -24 -47 -26 -58 -26 -185
0 -122 2 -139 24 -180 32 -62 106 -136 166 -168 44 -23 65 -27 165 -30 83 -3
127 0 157 11 23 8 442 224 933 481 l890 467 891 -467 c489 -257 909 -473 932
-481 30 -11 74 -14 157 -11 100 3 121 7 165 30 60 32 134 106 166 168 22 41
24 58 24 180 0 127 -2 138 -26 185 -59 110 -62 113 -1031 619 l-897 470 -3
410 c-3 409 -3 411 -26 455 -34 62 -103 133 -164 167 -49 27 -62 29 -173 31
-82 2 -131 -1 -156 -10z"/>
</g>
</svg>
