<?xml version="1.0" standalone="no"?>
<!DOCTYPE svg PUBLIC "-//W3C//DTD SVG 20010904//EN"
 "http://www.w3.org/TR/2001/REC-SVG-20010904/DTD/svg10.dtd">
<svg version="1.0" xmlns="http://www.w3.org/2000/svg"
 width="251.000000pt" height="201.000000pt" viewBox="0 0 251.000000 201.000000"
 preserveAspectRatio="xMidYMid meet">
<metadata>
Created by potrace 1.15, written by Peter Selinger 2001-2017
</metadata>
<g transform="translate(0.000000,201.000000) scale(0.100000,-0.100000)"
fill="#000000" stroke="none">
<path d="M123 1995 c-24 -17 -72 -142 -99 -260 -27 -118 -25 -350 4 -466 26
-105 67 -217 89 -241 13 -15 33 -18 113 -18 84 0 99 3 115 20 21 23 19 36 -30
153 -51 123 -69 226 -62 362 6 122 22 189 73 315 40 99 40 104 14 130 -17 17
-33 20 -108 20 -61 0 -94 -4 -109 -15z"/>
<path d="M2170 1990 c-27 -27 -25 -46 10 -121 42 -91 70 -208 77 -324 9 -147
-14 -262 -80 -409 -29 -63 -30 -70 -16 -95 14 -25 18 -26 116 -29 117 -3 120
-1 153 85 56 147 72 240 73 403 0 112 -4 177 -17 234 -25 115 -74 244 -99 261
-15 11 -48 15 -109 15 -75 0 -91 -3 -108 -20z"/>
<path d="M551 1741 c-41 -41 -60 -218 -37 -351 22 -126 27 -130 140 -130 50 0
96 4 102 8 26 18 32 46 18 91 -25 83 -28 171 -8 257 21 92 20 103 -8 127 -31
26 -180 25 -207 -2z"/>
<path d="M1180 1745 c-59 -18 -123 -73 -149 -128 -27 -56 -28 -155 -2 -213
l19 -41 -260 -624 c-183 -442 -257 -631 -253 -647 4 -17 24 -32 73 -53 84 -38
112 -44 135 -27 10 7 62 119 116 248 l98 235 298 0 298 0 98 -234 c53 -129
105 -241 116 -249 23 -17 50 -11 135 27 49 21 69 36 73 53 4 16 -70 205 -253
647 l-260 624 19 41 c22 48 25 130 7 190 -18 60 -92 131 -159 150 -63 19 -89
19 -149 1z m169 -759 c50 -120 91 -222 91 -227 0 -11 -370 -12 -370 -1 0 9
183 452 186 449 1 -1 43 -100 93 -221z"/>
<path d="M1744 1735 c-17 -17 -24 -32 -19 -43 14 -34 35 -148 35 -187 0 -22
-7 -69 -16 -105 -31 -129 -23 -140 111 -140 114 0 119 4 141 130 16 97 14 180
-8 284 -16 75 -33 86 -133 86 -79 0 -88 -2 -111 -25z"/>
</g>
</svg>
