<svg xmlns="http://www.w3.org/2000/svg" xmlns:xlink="http://www.w3.org/1999/xlink" version="1.1" x="0px" y="0px" viewBox="194 -104 1000 1250" style="enable-background:new 194 -104 1000 1000;" xml:space="preserve"><g>
    <path fill="#000" d="M732.3,454.2c-7.9-5.3-10.7-15.7-6.5-24.2c6-12.1,5.5-26.3-1.2-38s-18.8-19.2-32.3-20.1c-9.5-0.6-17.1-8.3-17.7-17.7   c-0.9-13.5-8.4-25.5-20.1-32.3c-11.7-6.7-25.9-7.2-38-1.2c-8.5,4.2-18.9,1.4-24.2-6.5c-7.5-11.2-20.1-17.9-33.5-17.9   c-13.5,0-26,6.7-33.5,17.9c-5.3,7.9-15.7,10.7-24.2,6.5c-12.1-6-26.3-5.5-38,1.2s-19.2,18.8-20.1,32.3c-0.6,9.5-8.3,17.1-17.7,17.7   c-13.5,0.9-25.5,8.4-32.3,20.1c-6.7,11.7-7.2,25.9-1.2,38c4.2,8.5,1.4,18.9-6.5,24.2c-11.2,7.5-17.9,20.1-17.9,33.5   c0,13.5,6.7,26,17.9,33.5l0,0c7.9,5.3,10.7,15.7,6.5,24.2c-5.8,11.7-5.5,25.4,0.6,36.8h271h62c6.1-11.4,6.3-25.1,0.6-36.8   c-4.2-8.5-1.4-18.9,6.5-24.2c11.2-7.5,17.9-20.1,17.9-33.5C750.2,474.3,743.5,461.7,732.3,454.2z"/>
    <path fill="#000" d="M997.2,401.6c-8.4-5.4-11.3-16.2-6.7-25.1c8.1-15.6,7.6-34-1.1-49.2c-8.8-15.2-24.5-24.8-42.1-25.6   c-10-0.5-17.9-8.4-18.4-18.4c-0.8-17.6-10.4-33.3-25.6-42.1c-15.2-8.8-33.6-9.2-49.2-1.1c-8.9,4.6-19.7,1.7-25.1-6.7   c-9.5-14.8-25.7-23.6-43.2-23.6c-17.6,0-33.7,8.8-43.2,23.6c-5.4,8.4-16.2,11.3-25.1,6.7c-15.6-8.1-34-7.6-49.2,1.1   c-15.2,8.8-24.8,24.5-25.6,42.1c-0.2,4.7-2.1,8.9-5,12.1c9.5,0.5,19,3.2,27.5,8.2c17.3,10,28.6,27.6,30.5,47.4   c19.8,1.9,37.4,13.2,47.4,30.5s10.9,38.2,2.7,56.3c16.2,11.6,25.8,30.1,25.8,50.1c0,19.9-9.6,38.5-25.8,50.1   c6.4,14.1,7.2,30,2.5,44.5h220.2c8.8-4.5,16-11.4,21-19.9c8.8-15.2,9.2-33.6,1.1-49.2c-4.6-8.9-1.7-19.7,6.7-25.1   c14.8-9.5,23.6-25.7,23.6-43.2C1020.8,427.2,1012,411.1,997.2,401.6z"/></g><text x="194" y="911" fill="#000000" font-size="5px" font-weight="bold" font-family="'Helvetica Neue', Helvetica, Arial-Unicode, Arial, Sans-serif">Created by Serhii Smirnov</text><text x="194" y="916" fill="#000000" font-size="5px" font-weight="bold" font-family="'Helvetica Neue', Helvetica, Arial-Unicode, Arial, Sans-serif">from the Noun Project</text></svg>