<?xml version="1.0" encoding="utf-8"?>
<!-- Generator: Adobe Illustrator 23.1.1, SVG Export Plug-In . SVG Version: 6.00 Build 0)  -->
<svg version="1.1" id="Capa_1" xmlns="http://www.w3.org/2000/svg" xmlns:xlink="http://www.w3.org/1999/xlink" x="0px" y="0px"
	 viewBox="0 0 191 198.5" style="enable-background:new 0 0 191 198.5;" xml:space="preserve">
<style type="text/css">
	.st0{fill-rule:evenodd;clip-rule:evenodd;}
</style>
<g>
	<path class="st0" d="M175,174c-35,31-108,35-149-2c9-5,18-10,34-9c6-6,15-10,29-8c10-56-18-80-42-85c11,6,27,16,32,41
		c-63,5-68-29-79-60c43-9,75-1,94,31c5-74,55-80,97-82c-7,33-5,86-72,94c1-23,11-44,36-63c-50,14-54,85-45,124c11,0,18,0,25,8
		C154,161,170,169,175,174z"/>
</g>
</svg>
