<?xml version="1.0" standalone="no"?>
<!DOCTYPE svg PUBLIC "-//W3C//DTD SVG 20010904//EN"
 "http://www.w3.org/TR/2001/REC-SVG-20010904/DTD/svg10.dtd">
<svg version="1.0" xmlns="http://www.w3.org/2000/svg"
 width="397.000000pt" height="230.000000pt" viewBox="0 0 397.000000 230.000000"
 preserveAspectRatio="xMidYMid meet">
<metadata>
Created by potrace 1.15, written by Peter Selinger 2001-2017
</metadata>
<g transform="translate(0.000000,230.000000) scale(0.100000,-0.100000)"
fill="#000000" stroke="none">
<path d="M2450 2261 c-58 -18 -109 -53 -166 -115 -69 -75 -88 -80 -174 -46
-56 22 -160 27 -220 10 -55 -15 -126 -65 -160 -111 -28 -39 -43 -81 -68 -184
-5 -22 -12 -47 -16 -56 -6 -13 4 -18 51 -28 75 -15 150 -58 201 -116 40 -45
82 -135 82 -174 0 -25 17 -37 65 -46 95 -17 196 -100 242 -201 33 -74 40 -152
19 -236 l-17 -66 46 -47 c26 -25 59 -72 73 -103 23 -49 27 -70 27 -147 0 -76
-4 -99 -26 -146 -15 -31 -48 -78 -73 -105 l-47 -49 17 -62 c16 -60 15 -152 -2
-196 -6 -16 43 -17 674 -17 l679 0 46 40 c26 23 58 66 74 98 38 77 39 187 4
279 -20 55 -22 67 -11 93 7 17 32 44 54 60 83 57 128 148 129 262 1 103 -38
184 -122 257 -32 28 -62 63 -65 77 -4 16 3 53 20 102 21 61 25 89 21 138 -12
155 -119 268 -278 293 -75 12 -114 46 -124 108 -15 100 -36 146 -94 203 -38
39 -72 62 -105 73 -68 23 -173 22 -238 -3 -88 -33 -101 -29 -182 53 -55 58
-84 79 -129 95 -59 22 -156 28 -207 13z"/>
<path d="M1070 1729 c-25 -11 -68 -44 -96 -74 -57 -61 -83 -68 -159 -40 -62
22 -142 19 -200 -9 -82 -38 -132 -111 -150 -218 -8 -48 -49 -83 -109 -91 -159
-22 -255 -183 -201 -337 28 -80 22 -107 -40 -164 -67 -63 -95 -121 -95 -201 0
-79 26 -133 95 -199 61 -59 68 -85 40 -161 -18 -52 -19 -137 -1 -180 l15 -35
1009 0 1009 0 11 39 c16 53 15 135 -3 178 -29 68 -21 93 48 164 69 71 87 112
87 200 0 74 -35 145 -94 194 -59 48 -69 82 -44 154 59 176 -35 325 -224 356
-48 8 -83 49 -91 109 -22 160 -182 256 -337 201 -81 -28 -104 -22 -173 48 -42
43 -75 67 -103 75 -62 18 -142 15 -194 -9z"/>
</g>
</svg>
