<?xml version="1.0" standalone="no"?>
<!DOCTYPE svg PUBLIC "-//W3C//DTD SVG 20010904//EN"
 "http://www.w3.org/TR/2001/REC-SVG-20010904/DTD/svg10.dtd">
<svg version="1.0" xmlns="http://www.w3.org/2000/svg"
 width="600.000000pt" height="976.000000pt" viewBox="0 0 600.000000 976.000000"
 preserveAspectRatio="xMidYMid meet">
<metadata>
Created by potrace 1.15, written by Peter Selinger 2001-2017
</metadata>
<g transform="translate(0.000000,976.000000) scale(0.100000,-0.100000)"
fill="#000000" stroke="none">
<path d="M2427 8785 c-312 -536 -567 -979 -567 -984 0 -7 76 -12 209 -13 l209
-3 -554 -915 -554 -915 280 -3 c154 -1 280 -6 280 -10 -1 -4 -263 -441 -584
-972 l-584 -965 324 -5 323 -5 -605 -1048 c-332 -577 -604 -1053 -604 -1058 0
-5 538 -9 1310 -9 l1310 0 0 -900 0 -900 415 0 415 0 0 900 0 900 1275 0
c1208 0 1275 1 1275 18 0 9 -270 485 -600 1057 l-599 1040 323 5 323 5 -587
972 -588 973 284 2 284 3 -554 915 -554 915 209 3 c121 1 209 6 209 12 0 5
-86 157 -191 337 -105 180 -360 619 -567 976 -207 356 -382 647 -388 647 -6 0
-266 -439 -577 -975z"/>
</g>
</svg>
