<svg xmlns="http://www.w3.org/2000/svg" viewBox="0 0 128.06 249.11"><defs><style>.cls-1{fill:#fff;}.cls-2{opacity:0.15;}.cls-3{fill:#1e380d;}.cls-4{fill:#9e825d;}.cls-5,.cls-6{fill:#d9d9d9;}.cls-5{opacity:0.9;isolation:isolate;}</style></defs><title>Sujete sf 7</title><g id="Capa_2" data-name="Capa 2"><g id="Terminadas"><path class="cls-1" d="M82.66,32.35C82.34,15.39,71.31,3,54.19,2.15a10,10,0,0,0-1.46.08c-6.35-2.45-12.8-3.14-19.15.35a16.85,16.85,0,0,0-7.4,7.92,11.62,11.62,0,0,0-2.79,4.94C20.92,24,13.47,30.78,12.62,39.63c-.39,4,1.36,7.1,1.86,10.89.46,3.48-.51,7.12.66,10.57a11,11,0,0,0,1.66,3.44c-.63-.49-.64.41,0,2.78C16.71,71.06,18.89,75,21,78a22.38,22.38,0,0,0,9.57,7.55,65.94,65.94,0,0,0-.52,12c.74,12.61-3.27,24.92-3.51,37.63-.16,8,7,11.41,13.06,10.18a8.44,8.44,0,0,0,1.59,1.12c2.47,1.3,5.6,2,8.33,1.09.46-.16.92-.29,1.39-.41.26,0,.52,0,.79,0A10.58,10.58,0,0,0,56.25,146a12.66,12.66,0,0,0,11.1-.39,4.37,4.37,0,0,0,3.06.75,4.31,4.31,0,0,0,3.75-4.24c0-.35,0-.7,0-1a4.5,4.5,0,0,0-1-2.65c-.16-.44-.32-.89-.5-1.32a7.26,7.26,0,0,0-.83-1.54,11,11,0,0,0-.45-1.46,144.28,144.28,0,0,1-8.57-32.67,3.77,3.77,0,0,0,4.22-2.06c6.37-11.78-1.67-23.81.29-36.15a4.41,4.41,0,0,0-1.12-3.77C76.46,54.27,82.91,45.83,82.66,32.35Z"/><path class="cls-1" d="M123.3,79.87a4.43,4.43,0,0,0-5.32-3l-1.92.39a4.33,4.33,0,0,0-3,5.31,4.42,4.42,0,0,0,5.31,3l1.93-.39A4.34,4.34,0,0,0,123.3,79.87Z"/><path class="cls-2" d="M68.77,94.67a143.1,143.1,0,0,1-2.2-29.44c.08-2.73-2.66-3.66-4.6-2.82A3.36,3.36,0,0,0,57.7,61.2c-6.34,3-12.07-.37-17.44-3.71-3.55-2.21-6.81,3.4-3.27,5.6,7.41,4.61,14.76,7.54,23.1,4.08a150.78,150.78,0,0,0,2.43,29.22C63.26,100.49,69.51,98.75,68.77,94.67Z"/><path class="cls-2" d="M34.35,54a23.31,23.31,0,0,1-4.7-4.41,2.75,2.75,0,0,0-2.21-.93,3.57,3.57,0,0,0-5.87,2.19,24.85,24.85,0,0,0,3.78,16.53,3.06,3.06,0,0,0,2.24,1.45,1,1,0,0,0,.76.33,3.63,3.63,0,0,0-1.42,1.2l-3.76,5.53a3.27,3.27,0,0,0,1.16,4.44,3.15,3.15,0,0,0,1.93.41c0,.09,0,.17,0,.26a1.09,1.09,0,0,0,2.13.29c.15-.46.31-.91.47-1.37a.94.94,0,0,0-.07-.83l3.71-5.46a3.27,3.27,0,0,0-1.16-4.44l-.24-.11.63-2.42a1,1,0,0,0-.31-1,3.21,3.21,0,0,0-.5-1.53,19.23,19.23,0,0,1-2.71-6.69,30.1,30.1,0,0,0,2.84,2.18,3.26,3.26,0,0,0,4.43-1.16A3.29,3.29,0,0,0,34.35,54Z"/><path class="cls-2" d="M36.39,102.51a15.82,15.82,0,0,0-5.94-2.41c-1.36-.26-1.94,1.83-.57,2.08a14.25,14.25,0,0,1,5.42,2.19C36.46,105.15,37.54,103.28,36.39,102.51Z"/><path class="cls-2" d="M51,247.29a5.32,5.32,0,0,1-3.07-2.55,13.7,13.7,0,0,1-4-1.29,2.23,2.23,0,0,0-3,.77,2.18,2.18,0,0,0,.77,3c2.89,1.28,5.72,2.34,8.91,1.66A1.81,1.81,0,0,0,52,247.71,6.07,6.07,0,0,0,51,247.29Z"/><path class="cls-2" d="M96.77,238.58a6.33,6.33,0,0,1-3.6-1.7,8.16,8.16,0,0,1-2.39-1.9c-.11-.13-.18-.28-.28-.42a24.72,24.72,0,0,1-3.18-.81c-2.65-.88-3.78,3.29-1.15,4.17a27.87,27.87,0,0,0,9.72,1.4,2,2,0,0,0,1.55-.73C97.22,238.59,97,238.6,96.77,238.58Z"/><path class="cls-2" d="M124.52,82.71c-1.27,1.69-3.24,2.1-5.23,2.09a27.8,27.8,0,0,1,1,4.28,9.38,9.38,0,0,0,7.29-4A1.94,1.94,0,1,0,124.52,82.71Z"/><path class="cls-3" d="M49.23,3.09c0-.1.51-.27,1.56-.5a11.7,11.7,0,0,1,2-.31,19.86,19.86,0,0,1,2.7-.14l1.63,0c.56,0,1.16.13,1.78.2l1,.12c.32,0,.64.13,1,.2.66.16,1.36.27,2.06.5A29,29,0,0,1,71.8,7.51a30.2,30.2,0,0,1,8.28,8.81c.29.47.59.93.86,1.42l.76,1.51A31.25,31.25,0,0,1,83,22.43a30.15,30.15,0,0,1,1.54,7.07,30.85,30.85,0,0,1-2.53,15.2A34,34,0,0,1,72,57.78a30.59,30.59,0,0,1-15.25,6.45,28.21,28.21,0,0,1-8-.17,26.74,26.74,0,0,1-7.31-2.22,34.05,34.05,0,0,1-11-8.52A40,40,0,0,1,24,43.17a29.75,29.75,0,0,1-2.5-17c.77-4.06,2.14-6,2.26-5.89s-.72,2.14-1.1,6a30.53,30.53,0,0,0,3.26,16,39.74,39.74,0,0,0,6.37,9.38A32.32,32.32,0,0,0,42.6,59.33a24.27,24.27,0,0,0,6.58,1.9,26,26,0,0,0,7.17.09,28.1,28.1,0,0,0,13.75-5.9,31.55,31.55,0,0,0,9.26-11.9,27.7,27.7,0,0,0,1.18-20.24,30.45,30.45,0,0,0-1.16-2.94c-.23-.48-.45-.94-.66-1.41s-.52-.88-.77-1.32A29.09,29.09,0,0,0,62.34,4.8c-.64-.26-1.3-.39-1.91-.58-.31-.09-.62-.19-.92-.26l-.89-.17c-.58-.11-1.14-.24-1.68-.32L55.4,3.31a25.77,25.77,0,0,0-2.61-.14,17,17,0,0,0-1.93,0C49.81,3.22,49.25,3.19,49.23,3.09Z"/><path class="cls-3" d="M49,31.12c-.83,0-1.57-2.71-1.64-6.11s.52-6.16,1.35-6.18,1.56,2.72,1.64,6.11S49.82,31.1,49,31.12Z"/><path class="cls-3" d="M68,32.23c-.82.12-1.89-2.53-2.38-5.92s-.22-6.24.6-6.36,1.88,2.54,2.37,5.93S68.86,32.11,68,32.23Z"/><path class="cls-3" d="M63.78,46.91c0,.4-.79.9-2.28,1.11a12.68,12.68,0,0,1-10.62-3.9c-1-1.13-1.31-2-1-2.33.64-.57,3.26,1.42,6.91,2.71S63.67,46.06,63.78,46.91Z"/><path class="cls-3" d="M29,66.43c-.06.09-.3,0-.71-.15a8.17,8.17,0,0,1-1.66-1,14.88,14.88,0,0,1-4.3-5.81,16.63,16.63,0,0,1-.76-10.83c1.13-4.2,4.33-7.5,5.69-11.21a8.16,8.16,0,0,0,.1-5.45c-.53-1.85-1.42-3.71-2-5.73a12.22,12.22,0,0,1-.47-3.13,9.77,9.77,0,0,1,.5-3,11.21,11.21,0,0,1,3-4.36A20.75,20.75,0,0,1,34.52,12c1.54-.62,2.45-.81,2.54-.63s-.65.74-2,1.66a28.94,28.94,0,0,0-5.15,4.19,9.6,9.6,0,0,0-2.11,3.63,7.91,7.91,0,0,0,.25,4.63c.52,1.69,1.45,3.48,2.13,5.66a12.24,12.24,0,0,1,.59,3.57,10.91,10.91,0,0,1-.68,3.73,30.47,30.47,0,0,1-3.27,6,21.73,21.73,0,0,0-2.6,5,15.5,15.5,0,0,0,.1,9.3,17.48,17.48,0,0,0,3.13,5.72c.51.6.91,1.07,1.2,1.39S29.07,66.34,29,66.43Z"/><path class="cls-3" d="M31.75,84.53c0,.1-.28.14-.77.12a8.8,8.8,0,0,1-.89-.08c-.34-.07-.74-.15-1.19-.26a17.36,17.36,0,0,1-6.85-3.72,20,20,0,0,1-6.28-9.84,20.5,20.5,0,0,1-.63-7c.13-2.35.45-4.67.42-6.93a14.8,14.8,0,0,0-.38-3.23,23.38,23.38,0,0,0-1-3.11A43.53,43.53,0,0,1,12,44.11a16.05,16.05,0,0,1,0-6.44,22,22,0,0,1,1.8-5.15,35.27,35.27,0,0,1,4.14-6.44c1.13-1.4,1.86-2.08,2-2s-.23,1-1.05,2.61a67.59,67.59,0,0,0-3.18,6.65,22.38,22.38,0,0,0-1.29,4.73,14.09,14.09,0,0,0,.27,5.38,45.64,45.64,0,0,0,2.26,6,27.61,27.61,0,0,1,1.17,3.5,17.51,17.51,0,0,1,.47,3.87c0,2.59-.34,5-.49,7.17a19,19,0,0,0,.37,6.09,19.23,19.23,0,0,0,5.06,9,20.6,20.6,0,0,0,5.81,4.17l1,.51.79.34C31.55,84.27,31.77,84.43,31.75,84.53Z"/><path class="cls-3" d="M74.43,143.45c-.37.11-2.08-4.28-4.18-11.58a245.62,245.62,0,0,1-6.33-29A247,247,0,0,1,61,73.36c-.24-7.59,0-12.29.43-12.3.9,0,1.8,18.65,5.41,41.36S75.29,143.2,74.43,143.45Z"/><path class="cls-3" d="M26.9,143.76c-.39,0-1.06-4.91-1.41-12.93-.18-4-.23-8.8-.13-14.11s.41-11.15.94-17.26,1.29-11.9,2.1-17.15,1.72-10,2.6-13.87C32.75,60.6,34.28,55.87,34.66,56c.88.2-3.28,19.54-5.37,43.77S27.81,143.72,26.9,143.76Z"/><path class="cls-3" d="M75.77,145.32c.1.37-2.53,1.53-7,2.55a61.15,61.15,0,0,1-8,1.23,74.36,74.36,0,0,1-10,.12,72.66,72.66,0,0,1-9.89-1.32A62.31,62.31,0,0,1,33,145.72c-4.36-1.56-6.83-3-6.69-3.38.32-.86,10.91,3.13,24.59,3.89S75.56,144.43,75.77,145.32Z"/><path class="cls-3" d="M56.82,248.18c0,.07-.28.35-1,.61a7.14,7.14,0,0,1-3.4.21,10.72,10.72,0,0,1-4.9-2.32,14.52,14.52,0,0,1-4.08-5.88,45.51,45.51,0,0,1-2.2-8.11c-.59-2.9-1.22-6-1.88-9.25-1.28-6.53-2.61-13.72-3.76-21.33s-2-14.9-2.43-21.57-.55-12.69-.43-17.74c.33-10.11,1.5-16.28,1.85-16.23s.06,6.25.27,16.24c.16,5,.45,10.93,1.06,17.51s1.51,13.79,2.65,21.34,2.38,14.74,3.51,21.28c.56,3.27,1.1,6.37,1.6,9.28A49,49,0,0,0,45.4,240a13.42,13.42,0,0,0,3.22,5.39,10.44,10.44,0,0,0,4,2.44C55.22,248.6,56.75,247.91,56.82,248.18Z"/><path class="cls-3" d="M98.79,238c0,.09-.32.28-1,.43a8.07,8.07,0,0,1-3.12,0,12.1,12.1,0,0,1-4.57-2,14.67,14.67,0,0,1-4.39-5,30.45,30.45,0,0,1-2.75-7.35c-.67-2.69-1.32-5.5-2-8.49-1.4-6-2.9-12.54-4.43-19.45-3-13.81-5.66-26.36-7.4-35.47s-2.61-14.79-2.2-14.88,2,5.43,4.28,14.42,5.2,21.47,8.25,35.28c1.53,6.91,3,13.5,4.2,19.5q.93,4.5,1.75,8.51a30.6,30.6,0,0,0,2.21,6.94,12.86,12.86,0,0,0,7.37,6.79C97.29,238.08,98.75,237.77,98.79,238Z"/><path class="cls-3" d="M68.83,5.65c-.18.43-3.36-.82-8.64-1.87a48.9,48.9,0,0,0-9.32-1,39.85,39.85,0,0,0-5.48.33,34,34,0,0,0-5.72,1.22A30.36,30.36,0,0,0,29.75,9.5a27.88,27.88,0,0,0-6.2,6.74,25.45,25.45,0,0,0-2.69,5.64c-.48,1.42-.72,2.25-.95,2.23s-.34-.89-.19-2.48a18.34,18.34,0,0,1,2-6.44A26.19,26.19,0,0,1,28,7.36,29.86,29.86,0,0,1,38.8,1.49,33,33,0,0,1,45,.23a34.78,34.78,0,0,1,5.9-.18A40.23,40.23,0,0,1,60.7,1.72C66.09,3.36,69,5.33,68.83,5.65Z"/><path class="cls-3" d="M55,2.94c.29.25-.26,1.52-1.74,3.14a18.89,18.89,0,0,1-2.89,2.53,23.27,23.27,0,0,1-4.12,2.29,21.22,21.22,0,0,1-8.3,1.78c-2.18,0-3.49-.45-3.49-.85,0-.87,5.08-1.26,10.61-3.68S54.33,2.37,55,2.94Z"/><path class="cls-3" d="M67.74,99.53c-.42-.17.27-2.43.84-6.1a47.67,47.67,0,0,0,.22-14.32A43.82,43.82,0,0,0,67,71.44c-.79-2.32-1.57-4.82-1.14-7.08a5.56,5.56,0,0,1,3-4.1c1.19-.48,1.88-.17,1.87,0s-.59.37-1.26,1A5,5,0,0,0,68,64.63a8.36,8.36,0,0,0,.41,2.65c.3,1,.75,2,1.22,3.22a36,36,0,0,1,1,23.41C69.49,97.67,68.08,99.68,67.74,99.53Z"/><path class="cls-3" d="M35.08,108.54c-.19-.13.62-1.15.31-3.2a6.36,6.36,0,0,0-1.45-3.24,9.34,9.34,0,0,0-4.16-2.4c-3.73-1.19-8.25-2.67-13.2-4.35L8.81,92.68,4.7,91.25l-1-.37a9,9,0,0,1-1.24-.53A4.51,4.51,0,0,1,.19,87.92a4,4,0,0,1,.52-3.45,7.25,7.25,0,0,1,.9-1.08l.83-.8c1.07-1,2.16-2,3.23-3C7.84,77.7,10,76,12.13,74.36A94.12,94.12,0,0,1,24,66.78C31.07,63,35.88,61.67,36,62s-4.29,2.45-10.95,6.61a123,123,0,0,0-11.23,7.93c-2,1.61-4.1,3.36-6.19,5.25-1,1-2.08,1.92-3.12,2.94a9,9,0,0,0-1.29,1.38A.9.9,0,0,0,3,87c0,.19.32.49.8.75a5.77,5.77,0,0,0,.82.35l1,.37,4.09,1.48,7.72,2.83c4.91,1.84,9.3,3.5,13,5a10.49,10.49,0,0,1,4.71,3.33,7.08,7.08,0,0,1,1.32,4.22,4.91,4.91,0,0,1-.73,2.65C35.46,108.45,35.15,108.6,35.08,108.54Z"/><path class="cls-3" d="M114.79,82.46c.18-.17,1,.84,2.95,1.77a6.59,6.59,0,0,0,3.62.62,4.6,4.6,0,0,0,3.48-2.57,2.93,2.93,0,0,0-1.52-4,5.56,5.56,0,0,0-2.92-.47,6.37,6.37,0,0,0-1.49.37,8.12,8.12,0,0,0-1.39.85,11.47,11.47,0,0,0-2.42,2.72c-.36.55-.7,1.12-1,1.72l-.48.93-.69,1.36-.24.48c-.1.13-.11.42-.33.34h-2.5c-.76,0-1.52,0-2.29,0-1.54-.07-3.11-.15-4.68-.33a71.29,71.29,0,0,1-17.32-4,68,68,0,0,1-13-6.4c-7-4.46-10.37-8.33-10.14-8.57S66.58,70.09,73.61,74a79.05,79.05,0,0,0,29.56,9.24c1.51.18,3,.26,4.48.33.74.06,1.47,0,2.2,0h.84s0,0,0-.09L111,83l.54-1c.37-.65.76-1.29,1.19-1.92a13.74,13.74,0,0,1,3.14-3.32,9.2,9.2,0,0,1,2-1.15,8.87,8.87,0,0,1,2.28-.49,7.92,7.92,0,0,1,4.27.89,5.41,5.41,0,0,1,2.75,3.29,5.15,5.15,0,0,1-.48,3.91,6.32,6.32,0,0,1-5.24,3.28,7.34,7.34,0,0,1-4.32-1.27,7.77,7.77,0,0,1-2-1.9C114.82,82.84,114.71,82.52,114.79,82.46Z"/><path class="cls-4" d="M40.22,27.08c-7,0-7,10.89,0,10.89S47.24,27.08,40.22,27.08Z"/><path class="cls-4" d="M75.78,29c-7,0-7,10.89,0,10.89S82.8,29,75.78,29Z"/><path class="cls-5" d="M33.31,245.35a4.22,4.22,0,1,1,4.22-4.22A4.23,4.23,0,0,1,33.31,245.35Zm0-8.24a4,4,0,1,0,4,4A4,4,0,0,0,33.31,237.11Z"/><polygon class="cls-6" points="34.11 242.74 35.72 242.74 33.31 237.92 30.91 242.74 32.52 242.74 33.31 244.34 34.11 242.74"/></g></g></svg>